<?xml version="1.0" encoding="UTF-8" standalone="no"?>
<!-- Created with Inkscape (http://www.inkscape.org/) -->

<svg
   xmlns:dc="http://purl.org/dc/elements/1.1/"
   xmlns:cc="http://creativecommons.org/ns#"
   xmlns:rdf="http://www.w3.org/1999/02/22-rdf-syntax-ns#"
   xmlns:svg="http://www.w3.org/2000/svg"
   xmlns="http://www.w3.org/2000/svg"
   xmlns:sodipodi="http://sodipodi.sourceforge.net/DTD/sodipodi-0.dtd"
   xmlns:inkscape="http://www.inkscape.org/namespaces/inkscape"
   width="210mm"
   height="297mm"
   viewBox="0 0 210 297"
   version="1.1"
   id="svg8"
   inkscape:export-filename="/home/daiwei/BCI_Multi_Robot/src/bci_control/source/app.png"
   inkscape:export-xdpi="23.6236"
   inkscape:export-ydpi="23.6236"
   inkscape:version="0.92.3 (unknown)"
   sodipodi:docname="app.svg">
  <defs
     id="defs2" />
  <sodipodi:namedview
     id="base"
     pagecolor="#ffffff"
     bordercolor="#666666"
     borderopacity="1.0"
     inkscape:pageopacity="0.0"
     inkscape:pageshadow="2"
     inkscape:zoom="0.12374369"
     inkscape:cx="-415.81113"
     inkscape:cy="1176.5753"
     inkscape:document-units="mm"
     inkscape:current-layer="layer1"
     showgrid="false"
     inkscape:snap-object-midpoints="true"
     inkscape:snap-center="true"
     inkscape:window-width="1855"
     inkscape:window-height="1056"
     inkscape:window-x="65"
     inkscape:window-y="24"
     inkscape:window-maximized="1" />
  <metadata
     id="metadata5">
    <rdf:RDF>
      <cc:Work
         rdf:about="">
        <dc:format>image/svg+xml</dc:format>
        <dc:type
           rdf:resource="http://purl.org/dc/dcmitype/StillImage" />
        <dc:title></dc:title>
      </cc:Work>
    </rdf:RDF>
  </metadata>
  <g
     inkscape:label="Layer 1"
     inkscape:groupmode="layer"
     id="layer1">
    <circle
       style="opacity:1;fill:#4d4d4d;fill-opacity:1;stroke:none;stroke-width:0.52916664;stroke-linecap:round;stroke-linejoin:round;stroke-miterlimit:4;stroke-dasharray:none;stroke-dashoffset:0;stroke-opacity:1;paint-order:normal"
       id="path947"
       cx="336.18088"
       cy="-55.617977"
       r="256" />
    <g
       id="g1021"
       transform="translate(11.350045,3.3766829)">
      <g
         style="fill:#4d4d4d;fill-opacity:1;stroke:#4d4d4d;stroke-width:0.9619599;stroke-opacity:1"
         transform="matrix(1.0457945,0,0,-1.0333311,266.74532,4.0594408)"
         id="g955">
        <path
           style="fill:#4d4d4d;fill-opacity:1;stroke:#4d4d4d;stroke-width:0.03393581;stroke-opacity:1"
           inkscape:connector-curvature="0"
           d="m 68.465342,-28.449049 c -7.055556,3.563056 -8.466667,5.750279 -8.43139,13.19389 0,3.527778 0.105834,4.1275 1.128889,6.596945 0.635,1.5875001 1.023056,2.9986113 0.881945,3.3513891 -0.141111,0.3527778 -1.305278,2.398889 -2.610556,4.58611136 -1.305278,2.18722234 -2.54,4.76250034 -2.786945,5.75027814 -0.811389,3.4219447 0.176389,6.1736114 3.492501,9.5602784 l 2.010833,2.081389 -1.199444,1.128889 c -1.516945,1.481667 -2.046112,2.504722 -2.328334,4.586111 -0.246944,1.5875 -0.176389,1.728612 0.987778,2.928056 0.705556,0.705556 1.27,1.446389 1.27,1.693334 0,0.246944 -0.493889,2.328333 -1.128889,4.656666 -1.058333,4.021667 -1.093611,4.550834 -1.128889,11.112501 0,7.514167 0.282222,9.101667 2.257778,13.052779 0.9525,1.869722 3.175,4.303889 4.268611,4.656667 0.388056,0.141111 0.141112,0.917222 -0.987777,3.316111 -5.080001,10.759723 -5.326945,12.065001 -5.468056,26.775835 l -0.105834,11.641669 0.917223,1.94028 c 0.493889,1.05833 1.481666,2.64583 2.187222,3.45722 0.740833,0.84667 1.305278,1.62278 1.305278,1.69333 0,0.0706 -0.564445,0.88195 -1.27,1.76389 -2.610556,3.42195 -3.810001,7.05556 -3.598334,10.68917 0.105834,1.94028 0.3175,2.68111 1.27,4.1275 1.340556,2.15194 1.375834,2.46944 0.282222,5.64444 -0.423333,1.34056 -1.27,4.26862 -1.834444,6.49112 -0.9525,3.84527 -1.023056,4.445 -1.023056,11.81805 v 7.76111 l 1.552223,3.28084 c 1.975555,4.1275 1.975555,5.00944 0.07055,7.97277 -1.869722,2.82223 -2.151944,3.88056 -2.151944,7.69056 0,2.25778 0.282222,4.1275 1.093611,7.23195 1.305278,5.04472 2.434167,10.44222 2.434167,11.64166 0,0.45861 -0.352778,1.30528 -0.776112,1.86973 -0.705555,0.9525 -0.776111,1.48166 -0.776111,5.92666 -0.03528,4.55084 0.03528,4.93889 0.917223,6.77334 0.529166,1.05833 1.622777,2.61055 2.469444,3.42194 2.010834,1.94028 5.397501,3.73945 6.596945,3.45722 0.740833,-0.14111 1.199445,0.0706 2.328333,1.23473 2.010834,2.04611 4.162779,2.64583 9.525001,2.61055 5.044723,0 7.549445,-0.635 13.229168,-3.38667 3.033889,-1.48166 4.092222,-2.2225 5.820833,-4.05694 1.164175,-1.23472 3.421945,-3.59833 5.009455,-5.22111 2.8575,-2.92806 2.92805,-2.99861 4.58611,-2.99861 0.91722,0 3.03389,0.35277 4.69194,0.74083 3.42195,0.88195 8.96056,1.02306 11.81806,0.35278 2.46944,-0.59972 8.5725,-3.56306 10.16,-4.97417 2.01083,-1.76389 4.69194,-7.58472 5.57389,-12.10028 0.35278,-1.94028 0.88194,-3.88055 1.16416,-4.26861 0.3175,-0.49389 1.44639,-1.05833 3.175,-1.5875 3.13973,-0.9525 6.17362,-2.82222 8.07862,-4.93889 1.62277,-1.79916 5.46805,-7.69055 6.94972,-10.61861 1.27,-2.46944 2.11667,-5.82083 2.11667,-8.29028 0,-1.905 -1.09362,-8.18444 -1.72862,-9.80722 -0.52916,-1.41111 -0.49388,-2.82222 0.21167,-4.51556 0.49389,-1.23472 0.52917,-1.83444 0.17639,-3.95111 -0.28222,-1.79916 -0.28222,-2.68111 0,-3.21028 0.21167,-0.42333 2.18722,-2.46944 4.37444,-4.55083 3.21028,-3.06917 4.23334,-4.30389 5.22112,-6.24417 3.10444,-6.20889 2.36361,-12.77055 -2.25778,-19.685 -1.44639,-2.18722 -1.69334,-2.71639 -1.27,-2.96333 1.65805,-0.91722 3.59833,-2.75167 4.23333,-3.98639 1.76389,-3.386667 0.21167,-11.147779 -3.31611,-16.545279 -0.91722,-1.375834 -2.11667,-2.928056 -2.71639,-3.421945 l -1.09361,-0.917222 -0.14111,-4.727223 c -0.14111,-4.445 -0.21167,-4.868333 -1.27,-7.196667 -0.84667,-1.799167 -1.76389,-3.033889 -3.31611,-4.480278 l -2.15195,-2.010833 0.77611,-3.03389 c 1.12889,-4.550833 1.55223,-9.630833 1.12889,-13.793611 -0.74083,-7.302501 -3.21027,-11.782779 -9.17222,-16.756946 -4.79778,-3.986389 -5.3975,-5.256389 -6.0325,-12.100279 -0.635,-7.0555555 -1.48167,-9.8072224 -3.66889,-11.9591669 -1.41111,-1.446389 -4.02167,-2.3636113 -6.56167,-2.3636113 -3.13972,0 -3.73944,-1.27000008 -2.64583,-5.5738892 1.16417,-4.4450003 -0.84667,-9.9130566 -5.25639,-14.3580566 -4.86833,-4.938889 -10.30111,-6.455834 -16.96861,-4.7625 -1.48167,0.388055 -3.52778,1.199444 -4.51556,1.799167 -0.98777,0.599722 -2.29305,1.164166 -2.96333,1.27 -1.02306,0.176389 -1.37583,0 -2.928061,-1.446389 -2.716389,-2.54 -8.890001,-5.150556 -12.170835,-5.150556 -0.635,0 -1.728611,-0.458611 -2.786944,-1.234723 -1.834445,-1.305277 -3.633611,-1.763889 -8.149167,-2.081389 l -2.822223,-0.211666 z m 12.3825,1.199445 c 1.869723,1.164167 3.951112,3.951111 4.833056,6.491111 0.3175,0.881945 0.811389,2.963334 1.093612,4.62139 0.423333,2.257778 0.705555,3.104444 1.27,3.4925 1.658055,1.128889 0.246944,4.4802779 -2.257778,5.3269446 -0.635,0.1763889 -2.293056,0.3175 -3.739445,0.2822222 -1.799167,-0.070555 -2.610556,0.035278 -2.716389,0.3175001 -0.246945,0.7055556 1.5875,1.1994445 5.3975,1.4111112 2.928056,0.1763889 3.739445,0.1058333 4.868334,-0.4233334 1.658056,-0.8113889 2.716389,-2.7869446 2.786945,-5.2563897 0.03528,-2.363611 -0.529167,-3.739444 -2.010834,-4.691944 -1.023056,-0.670278 -1.234722,-1.058334 -1.552222,-2.928056 -0.211667,-1.199445 -0.811389,-3.069167 -1.305278,-4.1275 -0.493889,-1.093611 -0.811389,-2.046112 -0.740833,-2.151945 0.282222,-0.246944 5.150555,1.340556 7.055556,2.293056 2.293055,1.164167 5.044722,3.774722 6.0325,5.750278 1.199444,2.328333 1.340554,4.268611 0.740834,8.6077783 -0.776112,5.2563892 -0.740834,6.738056 0.14111,7.6200005 1.62278,1.6227779 2.01083,0.7055556 2.18722,-5.3975003 0.10584,-3.3513891 0.3175,-5.3622225 0.59973,-5.6444445 0.24694,-0.246945 1.34055,-0.423334 2.43416,-0.458611 2.57528,-0.03528 3.66889,-0.388056 3.52778,-1.128889 -0.10583,-0.458612 -0.635,-0.635 -2.57528,-0.776112 -1.37583,-0.105833 -2.68111,-0.3175 -2.92805,-0.458611 -0.42334,-0.282222 -1.97556,-3.069167 -1.76389,-3.210278 2.25778,-1.622778 6.42055,-3.4925 9.10166,-4.092222 3.24556,-0.705556 7.16139,-0.176389 9.59556,1.340555 2.64583,1.658056 6.42056,6.350001 7.83167,9.736668 0.77611,1.9049998 0.70555,5.6444445 -0.17639,8.5019447 -0.38806,1.27000008 -0.81139,2.2930557 -0.9525,2.22250014 -0.14111,-0.07055556 -1.94028,-0.95250006 -4.02167,-1.97555564 -4.48028,-2.1872224 -7.44361,-3.0691669 -8.46667,-2.5047224 -1.02305,0.5291667 -0.59972,1.1288889 1.16417,1.6933334 2.36361,0.7408334 5.57389,2.22250016 6.10306,2.82222242 0.28222,0.31750002 0.77611,1.44638898 1.05833,2.54000018 0.74083,2.5400001 1.51695,3.2808335 2.82222,2.7869446 0.52917,-0.1763889 1.09361,-0.3527778 1.27,-0.3527778 0.49389,0 1.34056,3.3513891 1.62278,6.2088894 0.28222,3.033889 0.56445,3.668889 1.44639,3.104445 0.9525,-0.599723 0.81139,-6.5969453 -0.21167,-9.4191677 l -0.70555,-2.0108335 h 1.30528 c 1.5875,0 4.40972,0.7408334 5.92666,1.5169445 1.65806,0.8466668 3.4925,3.1750002 4.16278,5.291667 0.42333,1.1994447 0.70556,3.4572227 0.81139,6.6322227 l 0.21167,4.797778 -1.44639,1.128889 c -0.84667,0.705556 -1.62278,1.763889 -2.01084,2.716389 -1.05833,2.786945 -0.14111,3.280834 3.35139,1.693334 l 2.04611,-0.917223 1.34056,0.705556 c 1.72861,0.881944 7.83167,7.126111 9.06639,9.278056 4.58611,7.902223 3.35139,22.366112 -2.54,28.963057 -1.55222,1.728612 -1.72861,2.222501 -0.9525,2.504723 0.74083,0.282222 2.36361,-0.705556 3.73944,-2.293056 1.12889,-1.27 1.34056,-1.411111 2.01084,-1.058333 1.51694,0.846666 3.59833,3.633611 4.37444,5.961944 1.02306,3.104445 0.84667,7.902223 -0.38805,10.477501 -0.77611,1.622778 -2.8575,4.092223 -3.4925,4.092223 -0.14111,0 -0.74084,-1.481667 -1.34056,-3.280834 -1.905,-5.750278 -5.11528,-10.124723 -7.51417,-10.230556 -0.635,-0.03528 -1.23472,0.105833 -1.30527,0.352778 -0.0706,0.246944 0.81138,1.446389 1.97555,2.716389 3.63361,3.915833 5.53861,8.819445 5.25639,13.652501 -0.21167,3.774722 -1.97556,7.443611 -4.445,9.242778 -2.29306,1.693333 -3.31611,2.892778 -3.175,3.668894 0.14111,0.84666 1.69333,1.02305 3.06917,0.3175 2.15194,-1.128894 6.17361,-7.055561 6.56166,-9.630839 0.38806,-2.8575 0.52917,-3.104445 2.04612,-3.915833 0.84666,-0.423334 2.18722,-1.658056 3.03388,-2.751667 l 1.51695,-1.940278 1.09361,0.670278 c 3.31611,1.940278 6.56167,10.018889 5.53861,13.793612 -0.635,2.398889 -3.95111,5.503337 -7.90222,7.478887 l -3.175,1.55222 h -4.05695 c -3.98639,0 -4.09222,0.0353 -4.51555,0.88195 -0.24695,0.49389 -0.45861,1.30528 -0.45861,1.83444 0,1.02306 -3.84528,6.985 -5.89139,9.13695 -1.44639,1.51694 -3.4925,2.50472 -7.37306,3.4925 -2.89278,0.77611 -5.08,1.79917 -5.08,2.46944 0,1.12889 5.715,0.84667 8.5725,-0.45861 2.64584,-1.19944 4.69195,-3.175 8.36084,-8.00805 1.69333,-2.2225 3.81,-4.72723 4.69194,-5.57389 1.44639,-1.30528 1.83444,-1.48167 3.31611,-1.48167 0.9525,0 3.24556,-0.49389 5.18584,-1.12889 l 3.4925,-1.12889 0.98777,1.16417 c 1.44639,1.76389 2.99861,4.86833 3.63361,7.3025 2.15195,8.29028 -1.86972,17.00389 -9.24277,20.10833 -2.54,1.09362 -2.82223,1.62278 -2.2225,4.37445 0.91722,4.33917 0.14111,7.40833 -2.46945,9.63083 -1.65805,1.44639 -3.42194,2.01084 -6.24417,2.01084 -2.46944,0 -3.24555,0.21166 -3.24555,0.91722 0,1.41111 5.00944,1.48167 9.70139,0.17639 1.83444,-0.52917 2.54,-0.59973 2.71639,-0.28223 0.77611,1.19945 1.16416,3.63362 1.16416,7.30251 0,3.4925 -0.14111,4.40972 -0.9525,6.6675 -1.27,3.4925 -3.88055,7.79639 -6.35,10.4775 -3.52777,3.77472 -8.43139,5.78555 -14.25222,5.78555 -6.0325,0 -9.80722,-1.48166 -14.56972,-5.82083 -3.45723,-3.13972 -4.23334,-3.63361 -4.62139,-2.99861 -0.74084,1.23472 1.41111,3.77472 6.27944,7.51416 1.19945,0.91723 2.36361,2.04612 2.54,2.50473 0.74084,1.97555 -1.34055,5.36222 -4.05694,6.59694 -1.02306,0.45861 -2.29306,0.67028 -4.445,0.67028 -3.4925,0 -5.25639,0.49389 -5.25639,1.41111 0,1.27 0.98778,1.5875 4.90361,1.5875 4.33917,0 6.49111,-0.52917 8.29028,-2.01083 1.69333,-1.37584 2.64583,-3.31611 2.92805,-5.92667 0.17639,-1.79917 0.3175,-2.11667 0.77612,-1.94028 0.3175,0.14111 2.39888,0.38806 4.62138,0.59972 2.2225,0.24695 4.09223,0.42334 4.12751,0.45862 0.3175,0.14111 -2.22251,8.74889 -3.10445,10.4775 -3.13972,6.24416 -9.03111,9.17222 -18.30917,9.17222 -5.29166,0 -8.64305,-0.77611 -12.87639,-2.89278 -3.06916,-1.55222 -5.221109,-3.21028 -4.48028,-3.45722 1.65806,-0.52917 3.59834,-1.94028 4.69195,-3.38667 1.30528,-1.72861 1.65806,-2.61055 2.61056,-6.52639 0.70555,-2.89278 1.30527,-4.1275 1.97555,-3.91583 0.28222,0.0705 1.55222,0.21167 2.82222,0.28222 2.2225,0.10583 2.43417,0.0706 3.63361,-0.98778 1.23473,-1.09361 1.69334,-2.46944 0.84667,-2.46944 -0.24694,0 -1.05833,0.17639 -1.79917,0.38805 -2.64583,0.70556 -7.02027,-0.67027 -9.87777,-3.13972 -1.76389,-1.55222 -3.28084,-1.905 -3.66889,-0.91722 -0.10584,0.3175 0.59972,2.11667 1.65805,4.19806 1.65806,3.175 1.86973,3.91583 1.86973,5.75027 0,3.175 -1.02306,5.00945 -4.09223,7.16139 -1.34055,0.9525 -2.751664,1.72861 -3.069164,1.72861 -0.705556,0 -3.175,-2.57527 -3.175,-3.28083 0,-0.21167 0.246944,-1.30528 0.529166,-2.36361 0.599723,-2.2225 0.670278,-5.22111 0.176389,-5.99722 -0.635,-0.9525 -1.658055,0.81139 -2.116667,3.59833 -0.529166,3.45722 -0.881944,4.51556 -2.151944,6.38528 -1.234722,1.86972 -1.799167,2.29305 -6.314723,4.65667 -4.162778,2.18722 -4.550833,2.99861 -1.481667,2.99861 2.610556,0 5.856112,-1.51695 8.219723,-3.88056 l 1.5875,-1.5875 1.446389,1.05833 c 1.834445,1.30528 8.466668,5.60917 9.560278,6.13834 1.05833,0.56444 0.98778,0.74083 -0.56444,1.86972 -0.70556,0.49389 -3.10445,2.61056 -5.326949,4.65667 -4.445,4.1275 -6.35,5.25639 -11.500556,6.77333 -5.644445,1.62278 -11.253612,1.12889 -14.640279,-1.27 -0.599722,-0.42333 -1.552222,-1.69333 -2.116666,-2.8575 -0.599723,-1.12889 -1.199445,-2.08139 -1.375834,-2.08139 -0.388055,0 -1.023055,1.62278 -1.164167,2.92806 l -0.105833,1.02305 -2.434167,-2.08139 c -4.727222,-3.98638 -5.538611,-7.09083 -4.092222,-15.24 l 0.811389,-4.51555 3.104444,2.01083 c 3.527778,2.32833 6.491112,3.4925 7.126112,2.8575 0.705556,-0.70555 -0.141111,-1.51694 -4.092223,-3.91583 -4.374444,-2.68111 -7.161389,-5.25639 -7.725833,-7.16139 -0.211667,-0.70556 -0.282223,-1.41111 -0.176389,-1.51695 0.105833,-0.14111 1.763889,0.21167 3.668889,0.77611 3.210278,0.9525 3.880556,1.02306 9.101667,0.98778 4.938889,0 5.891389,-0.10583 7.584723,-0.77611 4.656667,-1.83444 8.290278,-6.13833 9.313334,-11.04194 0.211666,-0.91723 0.246944,-0.9525 2.469444,-0.77611 2.928056,0.24694 3.810001,0 5.468056,-1.48167 2.15194,-1.94028 2.96333,-4.23334 3.13972,-8.71361 l 0.14111,-3.77473 1.30528,0.81139 c 4.7625,3.03389 7.76111,3.81 14.21695,3.77473 7.86694,-0.0353 14.14639,-1.37584 17.63889,-3.77473 2.2225,-1.55222 4.30389,-4.445 6.63222,-9.13694 3.91583,-8.00806 5.32694,-14.04056 4.1275,-17.85056 l -0.49389,-1.62278 2.01083,-0.38805 c 3.10445,-0.67028 6.84389,-3.28084 8.64306,-6.10306 0.45861,-0.70555 1.05833,-2.18722 1.37583,-3.31611 0.28223,-1.09361 0.59973,-2.11667 0.74084,-2.2225 0.10583,-0.14111 1.55222,-0.35278 3.21028,-0.45861 3.35138,-0.28222 4.55083,-0.84667 4.90361,-2.36361 0.28222,-1.37584 -0.35278,-2.89278 -1.19945,-2.89278 -0.35278,0 -1.34055,0.3175 -2.18722,0.70556 -2.36361,1.05833 -3.56306,0.91722 -4.86833,-0.52917 -0.59973,-0.70556 -1.09361,-1.41111 -1.09361,-1.5875 0,-0.70556 -1.86973,-2.46945 -2.64584,-2.46945 -1.65805,0 -1.55222,3.56306 0.21167,6.45584 0.59972,0.9525 1.02305,2.15194 1.02305,2.82222 -0.0353,2.46945 -2.57527,6.17361 -5.43277,7.83167 -0.81139,0.45861 -2.75167,1.27 -4.37445,1.76389 -1.62278,0.52916 -3.03389,1.16416 -3.13972,1.44639 -0.10583,0.28222 0.10583,1.27 0.45861,2.18722 0.91722,2.32833 0.84667,6.52639 -0.14111,10.12472 -1.12889,4.02167 -4.58611,10.93611 -6.59695,13.15861 -3.10444,3.45723 -9.38389,5.64445 -17.145,5.96195 -7.51416,0.3175 -12.20611,-1.23472 -17.35667,-5.75028 -4.021662,-3.52778 -4.37444,-3.77472 -4.797773,-3.52778 -0.705556,0.45861 -0.388056,1.79917 0.811389,3.4925 2.822222,3.95111 2.328333,11.18306 -0.846667,13.08806 -0.740833,0.42333 -2.187222,0.70555 -4.409722,0.88194 -4.021667,0.28223 -4.409723,0.56445 -4.833056,3.63361 -0.564445,4.1275 -3.386667,7.51417 -7.549445,9.06639 -2.822223,1.05834 -7.584723,1.55223 -10.583334,1.09361 -6.032501,-0.91722 -10.371668,-4.86833 -10.371668,-9.34861 0,-1.16416 0.987778,-3.42194 2.046112,-4.72722 l 0.705555,-0.88194 0.564445,1.37583 c 0.740833,1.72861 1.552222,2.64583 2.328333,2.64583 1.446389,0 1.093611,-1.83444 -1.799167,-9.06639 -2.081389,-5.22111 -3.033889,-8.78416 -3.527778,-13.05278 -0.670277,-6.17361 0.670278,-13.68777 3.739445,-20.70805 1.411111,-3.175 2.046111,-4.16278 3.774723,-5.89139 1.164166,-1.12889 2.046111,-2.25778 1.975555,-2.50472 -0.176389,-0.52917 -1.763889,-0.77611 -2.963333,-0.49389 -0.458611,0.14111 -1.27,0.84666 -1.763889,1.62278 -0.529167,0.77611 -1.058334,1.41111 -1.199445,1.41111 -0.352778,0 -1.411111,-3.63361 -1.411111,-5.00945 0,-1.83444 0.917222,-4.58611 2.116667,-6.20889 1.763889,-2.46944 1.975555,-2.46944 6.279445,-0.3175 2.081389,1.05834 4.903611,2.25778 6.244167,2.71639 1.375833,0.45861 3.210278,1.16417 4.1275,1.62278 2.681111,1.34056 3.81,0.28222 1.552222,-1.44639 -0.670278,-0.52917 -2.575278,-1.44639 -4.198056,-2.11667 -8.854722,-3.45722 -13.476111,-7.3025 -15.486945,-12.80583 -0.635,-1.728612 -0.776111,-3.03389 -0.917222,-9.877779 -0.176389,-8.854723 0.211666,-13.370278 1.481667,-17.145001 1.5875,-4.727222 4.162778,-10.265834 6.244167,-13.51139 2.363611,-3.668889 2.963333,-5.3975 1.834444,-5.3975 -0.388055,0 -1.305278,0.564444 -2.046111,1.305278 -1.27,1.234722 -1.340556,1.27 -2.257778,0.740833 -1.340556,-0.811389 -3.033889,-3.175 -3.880556,-5.3975 -1.799167,-4.833056 -1.693333,-13.970001 0.282222,-19.826112 1.234723,-3.704167 1.446389,-6.84389 0.564445,-9.278057 -0.776111,-2.2225 -0.670278,-3.033889 0.705556,-4.550833 2.504722,-2.751667 9.242778,-5.291667 14.816667,-5.573889 3.421945,-0.176389 3.668889,-0.141112 8.008056,1.27 6.420556,2.116666 9.666112,2.328333 7.690556,0.564444 -0.881944,-0.776111 -9.454445,-3.210278 -13.299723,-3.739445 -3.81,-0.564444 -6.455834,-0.105833 -11.041945,1.869723 -4.233334,1.834444 -5.256389,1.869722 -6.879167,0.282222 -1.799167,-1.728611 -3.351389,-5.0094448 -3.351389,-7.0202782 0,-1.9402779 1.305278,-4.8683337 3.81,-8.5725006 2.257778,-3.3161113 4.550834,-5.4680559 7.761112,-7.3377782 2.54,-1.446389 4.056944,-3.104445 3.880555,-4.233334 -0.176388,-0.9525 -1.516944,-0.776111 -2.928055,0.458612 -3.633612,3.033889 -7.690556,5.9266666 -7.972779,5.6444443 -0.776111,-0.7761111 -1.446389,-4.9388893 -1.27,-7.8669453 0.282223,-4.7625 1.552223,-7.337778 4.903612,-9.8425 0.3175,-0.246945 2.081389,-0.987778 3.880556,-1.658056 4.233333,-1.552222 6.738056,-1.552222 9.313333,0.03528 z"
           id="path821" />
        <path
           style="fill:#4d4d4d;fill-opacity:1;stroke:#4d4d4d;stroke-width:0.03393581;stroke-opacity:1"
           inkscape:connector-curvature="0"
           d="m 101.06201,3.5126201 c 0.17639,0.3527778 1.12889,1.5522223 2.11667,2.6811112 2.2225,2.5047224 2.64583,3.3513891 3.21028,6.0325007 0.91722,4.515556 -0.3175,6.879167 -4.65667,8.995834 -4.339169,2.081389 -4.48028,2.081389 -6.738058,0.211666 -1.093611,-0.881944 -2.2225,-1.5875 -2.504722,-1.5875 -1.058334,0 -0.599722,1.658056 1.023056,3.81 0.881944,1.199445 1.834444,2.928056 2.116666,3.880556 0.9525,3.139723 2.998612,4.868334 2.998612,2.434167 0,-1.093611 -0.352778,-2.786945 -0.846667,-4.339167 -0.211667,-0.705555 -0.07056,-0.776111 2.328333,-0.987778 3.06917,-0.3175 4.97417,-1.093611 6.87917,-2.822222 1.37583,-1.234722 1.51694,-1.27 4.23333,-1.27 3.45722,0 4.90361,-0.458611 5.57389,-1.799167 0.56444,-1.058333 0.70556,-2.434167 0.28222,-2.434167 -0.17639,0 -0.98778,0.211667 -1.86972,0.493889 -0.88194,0.246945 -2.57528,0.599722 -3.73944,0.740834 l -2.18723,0.246944 0.17639,-2.257778 c 0.38806,-4.938889 -1.37583,-8.9605561 -4.97416,-11.4652785 -1.90501,-1.3052778 -4.02167,-1.6227778 -3.42195,-0.5644444 z"
           id="path823" />
        <path
           style="fill:#4d4d4d;fill-opacity:1;stroke:#4d4d4d;stroke-width:0.03393581;stroke-opacity:1"
           inkscape:connector-curvature="0"
           d="m 75.48562,19.528732 c -0.105833,0.211667 0.282222,1.305278 0.881944,2.469445 0.599723,1.128889 1.164167,2.681111 1.305278,3.386667 l 0.211667,1.340555 -2.081389,-0.105833 c -2.469445,-0.141111 -3.986389,0.352778 -3.986389,1.305278 0,0.599722 0.388055,0.670278 5.573889,0.811389 4.445,0.141111 5.926667,0.3175 7.549445,0.917222 4.374445,1.552222 6.773334,4.162778 10.477501,11.28889 1.728611,3.316111 2.928055,5.08 5.326944,7.796389 3.45722,3.915834 4.23333,5.573889 4.23333,9.172223 0,2.081389 -0.88194,4.445 -2.61055,6.985 -1.19945,1.728611 -1.16417,2.363612 0.3175,5.185834 0.67028,1.305278 1.23472,2.786945 1.23472,3.245556 0,1.164166 -0.91722,3.280833 -1.86972,4.303889 -1.65806,1.763889 -5.679724,3.245556 -8.960558,3.245556 -1.5875,0 -1.940278,-0.141112 -2.469444,-0.917223 -2.151945,-3.139722 -4.162779,-4.727222 -5.926667,-4.727222 -1.446389,0 -1.093612,0.9525 1.340555,3.4925 2.54,2.716389 3.069167,4.056945 3.069167,7.831667 v 2.610556 l -2.187222,0.423333 c -1.199445,0.246945 -2.575278,0.705556 -3.069167,1.093611 -0.917222,0.670278 -3.033889,3.210278 -3.245556,3.915834 -0.105833,0.246944 -0.9525,0.105833 -2.363611,-0.3175 -4.691945,-1.481667 -8.819445,-1.27 -11.218334,0.529167 -1.27,0.987778 -2.610556,3.563055 -2.610556,5.115278 0,1.834447 1.199445,1.375837 4.162778,-1.5875 3.704167,-3.704167 5.468056,-3.915834 9.595556,-1.27 1.234723,0.811389 2.434167,1.446389 2.681111,1.446389 0.246945,0 0.987778,-0.670278 1.622778,-1.446389 3.739445,-4.656667 4.586112,-5.25639 7.231945,-5.25639 3.527778,0 8.325556,3.421945 10.336385,7.408334 2.50473,4.868333 2.32834,10.406943 -0.493884,15.663333 -1.093611,2.08139 -1.199445,2.54 -0.811389,2.96334 0.635,0.59972 2.081393,0.24694 2.998613,-0.74084 0.88194,-0.98778 1.83444,-4.90361 1.83444,-7.54944 0,-1.12889 0.14111,-2.2225 0.28223,-2.46945 0.81138,-1.27 5.92666,-1.83444 9.34861,-1.02305 2.61055,0.59972 4.445,1.44639 7.05555,3.24555 2.36361,1.62278 2.92806,1.34056 4.37445,-2.15194 1.16416,-2.82222 2.68111,-4.7625 4.40972,-5.67972 0.52917,-0.28223 2.29306,-0.74084 3.88056,-1.05834 3.66888,-0.705554 4.19805,-0.952498 3.10444,-1.552221 -1.12889,-0.599722 -5.32694,-0.246944 -7.65528,0.635 -2.78694,1.058331 -4.51555,2.610561 -5.78555,5.221111 -0.59973,1.23472 -1.16417,2.25778 -1.19945,2.25778 -0.0353,0 -1.79917,-0.67028 -3.91583,-1.48167 -3.52778,-1.37583 -4.1275,-1.48166 -7.19667,-1.51694 -1.83444,0 -3.98639,0.14111 -4.79778,0.3175 l -1.44639,0.28222 -0.24694,-1.76389 c -0.10583,-0.98778 -0.77611,-2.892777 -1.48167,-4.268611 -2.01083,-4.021667 -5.291664,-6.914445 -9.313331,-8.184445 -1.058334,-0.352777 -1.905,-0.776111 -1.869723,-0.987777 0.07056,-0.211667 0.211667,-1.693334 0.3175,-3.35139 l 0.246945,-2.963333 3.563056,-0.141111 c 4.162778,-0.141111 6.667503,-1.093611 8.925283,-3.351389 2.04611,-2.046112 2.75166,-3.739445 2.75166,-6.632223 -0.0353,-2.645833 -0.45861,-3.845278 -2.08139,-5.573889 l -0.9525,-1.023056 1.30528,-1.728611 c 2.32833,-3.210278 3.42195,-7.690556 2.32833,-9.736667 -0.38805,-0.670278 -0.28222,-0.705556 2.75167,-0.917223 6.42056,-0.458611 11.32417,-2.046111 12.34722,-3.951111 0.52917,-0.987778 0.21167,-3.069167 -0.52916,-3.704167 -0.45861,-0.388055 -0.88195,-0.141111 -2.64584,1.375834 -2.71639,2.363611 -4.83305,3.280833 -7.97277,3.4925 -2.18723,0.141111 -2.82223,0.03528 -4.51556,-0.740834 -3.81,-1.763889 -6.59695,-5.044722 -10.830279,-12.770556 C 92.595343,31.1704 88.785343,28.13651 82.929232,27.148733 81.377009,26.901788 80.318676,26.54901 80.56562,26.407899 81.729787,25.702344 80.107009,22.315677 77.602287,20.269566 76.12062,19.034843 75.873676,18.964288 75.48562,19.528732 Z"
           id="path825" />
        <path
           style="fill:#4d4d4d;fill-opacity:1;stroke:#4d4d4d;stroke-width:0.03393581;stroke-opacity:1"
           inkscape:connector-curvature="0"
           d="m 121.77007,20.975121 c -0.70556,1.023056 -0.70556,1.658056 0.14111,4.868334 0.98778,3.81 0.91722,5.926667 -0.3175,8.748889 -1.97556,4.550834 -1.905,5.009445 1.44639,6.773334 3.06916,1.622778 4.93889,3.210278 7.37305,6.244167 2.64584,3.316111 4.33917,6.385278 5.78556,10.442223 3.45722,9.736667 2.2225,18.026946 -3.84528,25.364724 -2.18722,2.645833 -5.08,4.833056 -9.31333,6.985 -2.29306,1.199445 -3.06917,1.763889 -3.06917,2.293056 0,2.398889 7.62,-0.846667 11.32417,-4.797778 0.81139,-0.846667 2.04611,-2.187223 2.71639,-2.963334 l 1.27,-1.411111 2.2225,1.128889 c 1.69333,0.881945 2.50472,1.5875 3.45722,2.998611 1.86972,2.751667 3.175,4.162778 3.91583,4.162778 1.69334,0 -0.10583,-5.150555 -2.43416,-7.020278 -1.19945,-0.917222 -3.63361,-2.187222 -5.04473,-2.610556 -0.49389,-0.176388 -0.38805,-0.529166 0.635,-2.610555 1.79917,-3.668889 2.32834,-6.773334 2.11667,-12.700001 l -0.17639,-4.974167 2.25778,-1.975556 c 2.61056,-2.328333 4.69194,-3.351389 6.73806,-3.386667 1.86972,0 3.28083,-0.529166 3.28083,-1.199444 0,-1.27 -5.53861,-1.164167 -8.11389,0.141111 -0.81139,0.423333 -2.25778,1.481667 -3.175,2.328333 -1.79917,1.693334 -2.11667,1.834445 -2.11667,0.987778 0,-1.481666 -2.32833,-6.244167 -4.09222,-8.325556 -1.02306,-1.199444 -1.94028,-2.54 -2.04611,-2.963333 -0.14111,-0.529167 0.21167,-1.375834 1.05833,-2.681112 1.65806,-2.469444 2.96334,-5.044722 2.96334,-5.891389 0,-0.881944 0.67027,-1.093611 3.35139,-1.093611 1.86972,0 2.61055,0.211667 4.58611,1.27 1.30527,0.670278 2.71639,1.199445 3.13972,1.128889 0.98778,-0.141111 1.19944,-1.693333 0.3175,-2.469445 -0.91722,-0.811389 -5.46806,-2.046111 -8.60778,-2.293055 l -2.71639,-0.211667 -0.14111,-3.210278 c -0.10583,-2.998611 -0.21167,-3.351389 -1.30528,-4.903611 -1.23472,-1.693334 -2.99861,-3.104445 -4.69194,-3.739445 -1.5875,-0.599722 -1.51695,0.176389 0.17639,1.975556 1.86972,2.046111 2.50472,3.210278 3.03389,5.679722 0.84666,3.951112 0.14111,7.761112 -2.11667,11.712223 l -1.12889,1.940278 -2.25778,-2.469445 c -1.23472,-1.375833 -2.68111,-3.175 -3.175,-4.021666 -0.91722,-1.516945 -0.91722,-1.552223 -0.45861,-4.339167 0.45861,-2.786945 0.3175,-5.362223 -0.38805,-9.101668 -0.35278,-1.763889 -1.51695,-4.586111 -1.905,-4.586111 -0.0706,0 -0.38806,0.352778 -0.67028,0.776111 z"
           id="path827" />
        <path
           style="fill:#4d4d4d;fill-opacity:1;stroke:#4d4d4d;stroke-width:0.03393581;stroke-opacity:1"
           inkscape:connector-curvature="0"
           d="m 75.80312,40.201511 c -0.811389,0.3175 -0.493889,0.811389 1.234722,1.869723 1.516945,0.987777 6.067778,5.679722 6.067778,6.279444 0,0.141112 -0.635,1.164167 -1.411111,2.328334 -1.622778,2.398889 -2.081389,3.774722 -2.363611,6.914445 -0.211667,2.610556 0.3175,5.609167 1.305278,7.62 0.388055,0.740834 0.705555,1.375834 0.705555,1.411111 0,0.03528 -1.375833,0.105834 -3.104444,0.211667 -3.421945,0.211667 -4.903612,0.776111 -7.514167,2.928056 -2.081389,1.763889 -3.069167,3.316111 -2.398889,3.739445 0.846666,0.529166 1.27,0.352777 3.386666,-1.446389 1.128889,-0.987778 2.892778,-2.187223 3.915834,-2.716389 l 1.869722,-0.917223 4.833056,0.388056 c 4.656667,0.423333 5.750278,0.282222 5.221112,-0.599722 -0.141111,-0.211667 -0.846667,-0.493889 -1.552223,-0.599723 -0.740833,-0.105833 -1.552222,-0.388055 -1.869722,-0.599722 -0.9525,-0.705556 -2.187222,-6.632223 -1.975556,-9.348612 0.211667,-2.822222 1.093612,-5.609167 2.187223,-6.985 0.670278,-0.846667 1.093611,-1.023056 3.280833,-1.199445 3.316112,-0.3175 4.303889,-0.987777 4.303889,-2.8575 v -1.411111 l -1.305277,0.282222 c -3.104445,0.670278 -5.57389,-0.141111 -8.819445,-2.786944 -2.71639,-2.257778 -4.656667,-3.069167 -5.997223,-2.504723 z"
           id="path829" />
        <path
           style="fill:#4d4d4d;fill-opacity:1;stroke:#4d4d4d;stroke-width:0.03393581;stroke-opacity:1"
           inkscape:connector-curvature="0"
           d="m 89.102843,118.94152 c 0,0.17639 0.3175,1.34055 0.705556,2.57527 0.388055,1.19945 0.705555,2.64584 0.705555,3.13973 0,1.34055 -0.705555,3.175 -1.552222,4.1275 -0.705556,0.77611 -0.917222,0.81139 -3.563056,0.59972 -3.280833,-0.28222 -4.374445,0.0353 -6.173611,1.76389 -0.846667,0.81139 -1.905001,1.34055 -3.457223,1.76389 -1.199444,0.28222 -2.610556,0.74083 -3.069167,0.9525 -1.975555,0.88194 -0.352777,1.97555 2.293056,1.55222 0.776111,-0.10583 3.069167,-0.91722 5.115278,-1.79917 2.010834,-0.88194 3.880556,-1.5875 4.092223,-1.5875 0.211666,0 1.340555,0.42334 2.469444,0.91722 2.046111,0.91723 2.2225,0.9525 7.126112,0.74084 5.891389,-0.24695 8.360832,-0.81139 11.571112,-2.71639 3.42194,-2.04611 4.55083,-3.31611 4.55083,-5.18583 v -1.55223 l -0.9525,0.52917 c -0.56444,0.28222 -1.51694,1.05833 -2.15194,1.76389 -0.635,0.70555 -1.72861,1.65805 -2.46945,2.15194 -2.36361,1.55223 -10.230552,3.42195 -11.994441,2.8575 -0.740834,-0.24694 -0.740834,-0.24694 0.141111,-1.86972 0.705555,-1.37583 0.846667,-2.11667 0.846667,-4.7625 0,-3.56305 -0.493889,-4.90361 -2.116667,-5.75028 -1.164167,-0.59972 -2.116667,-0.70555 -2.116667,-0.21166 z"
           id="path831" />
        <path
           style="fill:#4d4d4d;fill-opacity:1;stroke:#4d4d4d;stroke-width:0.03393581;stroke-opacity:1"
           inkscape:connector-curvature="0"
           d="m 123.56923,122.75152 c -0.49388,0.49389 -0.21166,2.36361 0.98778,6.0325 1.44639,4.58611 1.76389,6.24416 1.41111,8.36083 -0.74083,4.93889 -7.23194,6.94972 -13.08805,4.05695 -1.19945,-0.56445 -2.25778,-1.05834 -2.36361,-1.05834 -0.14112,0 -1.02306,0.70556 -2.01084,1.5875 -5.64444,5.00945 -15.663332,6.70278 -23.777222,3.98639 -3.351389,-1.09361 -5.432778,-2.29305 -7.831667,-4.55083 -2.469444,-2.29306 -3.739445,-2.64584 -3.951111,-1.09361 -0.176389,1.09361 1.516944,2.64583 5.256389,4.90361 l 2.963334,1.76389 0.282222,1.905 c 0.493889,3.175 -0.141111,4.37444 -3.245556,6.31472 -3.069167,1.905 -3.563056,2.50472 -2.8575,3.35139 0.423333,0.49389 0.881944,0.56444 2.363611,0.42333 4.515556,-0.45861 6.208889,-2.61055 6.0325,-7.58472 -0.07056,-1.5875 -0.03528,-2.89278 0.03528,-2.89278 0.105834,0 1.516945,0.24695 3.175,0.56445 4.162778,0.77611 11.818057,0.49388 15.5575,-0.56445 2.99861,-0.84667 7.40833,-2.92805 8.29028,-3.88055 0.56444,-0.635 0.635,-0.635 1.79916,0.17638 3.24556,2.18723 10.58334,1.37584 13.68778,-1.51694 1.34056,-1.27 2.32834,-3.45722 2.32834,-5.29167 0,-1.69333 -1.55223,-9.63083 -2.32834,-11.78278 -0.52916,-1.48166 -1.79916,-3.45722 -2.2225,-3.45722 -0.14111,0 -0.38805,0.10584 -0.49389,0.24695 z"
           id="path833" />
      </g>
      <path
         id="path835"
         d="m 271.75358,52.666294 v 8.748864 h 50.7283 50.7283 l -0.0737,-8.675963 -0.11068,-8.639505 -50.61761,-0.109358 -50.65452,-0.07295 z"
         inkscape:connector-curvature="0"
         style="fill:#e3dbdb;stroke:none;stroke-width:0.03527777" />
      <path
         id="path837"
         d="m 275.81184,67.430012 c 0,0.109358 0,4.009893 -0.0369,8.63951 v 8.493686 l 45.41567,0.109375 45.37877,0.07288 -0.0738,-8.6395 -0.11069,-8.675965 -45.26809,-0.109368 c -24.93988,-0.03647 -45.30499,0 -45.30499,0.109368 z"
         inkscape:connector-curvature="0"
         style="fill:#e3dbdb;stroke:none;stroke-width:0.03527777" />
      <path
         id="path839"
         d="m 281.34584,100.056 v 8.74888 h 39.47584 39.47584 V 100.056 91.30713 h -39.47584 -39.47584 z"
         inkscape:connector-curvature="0"
         style="fill:#e3dbdb;stroke:none;stroke-width:0.03527777" />
      <path
         inkscape:connector-curvature="0"
         id="path944"
         d="M 271.38167,29.664105 C 270.416,13.95398 266.52264,2.3886174 258.78327,-7.7599036 c -3.50145,-4.5914004 -7.96296,-8.9466224 -21.10077,-20.5981124 -8.66095,-7.681112 -13.01604,-12.345517 -17.3657,-18.599092 -10.5781,-15.208289 -15.78617,-33.467013 -17.53995,-61.492462 -3.62793,-57.97454 18.85517,-95.45039 66.71281,-111.19991 12.7762,-4.20453 25.7596,-6.41578 40.15635,-6.83918 l 10.38907,-0.30554 0.37203,38.27396 c 0.20461,21.05068 0.37202,80.11532 0.37202,131.254703 v 92.980799 h -24.51275 -24.51275 z"
         style="opacity:1;fill:#ffffff;fill-opacity:1;stroke:#4d4d4d;stroke-width:0.52916652;stroke-linecap:round;stroke-linejoin:round;stroke-miterlimit:4;stroke-dasharray:none;stroke-dashoffset:0;stroke-opacity:1;paint-order:normal" />
      <path
         inkscape:connector-curvature="0"
         id="path957"
         d="m 341.43003,31.916692 c -6.19353,-2.174819 -8.58659,-5.493274 -8.65863,-12.006942 -0.0426,-3.847595 0.51087,-7.315903 1.16711,-7.314173 0.20617,5.47e-4 2.38731,1.491459 4.847,3.313145 4.80562,3.559139 6.62841,4.157803 6.32783,2.078278 -0.1072,-0.741653 -1.29637,-2.011723 -2.97373,-3.176045 -4.8526,-3.368394 -8.88502,-7.7759411 -11.07954,-12.1102376 -1.13156,-2.23489644 -2.05739,-4.4783746 -2.05739,-4.9854972 0,-1.5678798 2.85392,-6.6751256 4.22667,-7.5638659 1.20747,-0.7817393 1.75227,-0.6912233 7.49255,1.2448221 6.1313,2.0679266 6.23167,2.0819057 10.51228,1.464621 5.88814,-0.8491107 14.38419,-3.5633874 14.38419,-4.5953964 0,-1.1155 -2.81384,-0.826661 -8.46611,0.869037 -2.50414,0.751254 -5.7744,1.3622424 -7.26723,1.3577532 -5.80847,-0.017471 -13.51989,-2.7200782 -16.36721,-5.7361772 -1.3013,-1.378448 -1.32941,-1.57057 -0.71499,-4.887792 0.57116,-3.083692 0.49292,-4.073154 -0.73171,-9.252679 -2.52832,-10.693471 -1.66959,-20.002312 2.23337,-24.210417 l 1.87639,-2.023103 1.69894,1.24111 c 3.73994,2.732105 3.78119,1.039959 0.12974,-5.321613 -1.50288,-2.618315 -3.64494,-7.037881 -4.76016,-9.821257 -2.46841,-6.16075 -3.33706,-13.268928 -2.82409,-23.109462 0.5814,-11.153441 2.87433,-14.248321 14.92737,-20.148191 4.67043,-2.28614 7.46516,-3.9735 7.58306,-4.5784 0.35543,-1.82369 -2.61084,-0.98469 -13.39294,3.78814 -2.35063,1.04053 -4.67098,1.74131 -5.15633,1.55728 -0.48535,-0.18402 -1.55108,-1.68494 -2.3683,-3.33537 -1.22663,-2.47726 -1.4233,-3.45175 -1.12726,-5.58576 0.46674,-3.36469 0.97158,-3.77308 2.57697,-2.08459 1.31944,1.38774 4.0919,1.90175 4.7326,0.87742 0.17572,-0.28092 -0.69645,-1.67062 -1.93814,-3.08819 -4.43567,-5.06393 -7.24342,-12.98568 -7.68029,-21.66907 -0.34932,-6.9433 0.30061,-10.43693 3.54395,-19.04978 1.35678,-3.603 2.46687,-7.28489 2.46687,-8.18197 0,-2.2822 -1.42824,-2.11092 -2.89611,0.34731 l -1.18136,1.97838 -1.16316,-1.81518 c -4.42401,-6.90397 4.50054,-14.22645 15.46849,-12.69171 7.13948,0.99903 10.83109,3.77395 12.21158,9.17923 0.99722,3.90455 1.66999,4.48889 5.67494,4.92889 1.90857,0.20968 4.01369,0.72891 4.67804,1.15384 2.84767,1.82141 3.11231,8.38091 0.5316,13.17672 -1.38985,2.58278 -1.46829,3.65332 -0.2677,3.65332 0.31201,0 2.24674,-1.40866 4.2994,-3.13037 2.05266,-1.72171 5.11567,-3.77233 6.8067,-4.55694 2.81238,-1.3049 3.6944,-1.42656 10.34184,-1.42656 12.50216,0 18.00264,2.64923 22.30774,10.74419 3.97699,7.47805 5.24422,13.99278 3.73397,19.19597 -0.61082,2.10446 -0.43257,2.27751 4.14526,4.02407 4.02343,1.53505 6.75133,3.87595 8.19549,7.03284 1.05983,2.31674 1.05911,2.34721 -0.10854,4.60872 -0.64648,1.2521 -1.35071,3.29114 -1.56496,4.53119 l -0.38954,2.25464 -3.83661,-4.65393 c -4.95511,-6.01069 -6.71955,-7.50092 -10.0838,-8.51663 -4.98635,-1.50547 -9.36548,-0.72299 -6.70627,1.1983 0.57727,0.41707 2.7156,1.24857 4.75187,1.84777 2.03625,0.59919 4.55819,1.65776 5.60429,2.35237 2.3116,1.53489 7.02693,8.15938 7.7832,10.93452 0.51038,1.8728 0.73547,2.04247 3.14224,2.36841 1.42586,0.19312 3.57196,0.35111 4.7691,0.35111 4.17836,0 11.55216,4.9429 12.75757,8.551816 1.15371,3.454094 -1.23746,10.283361 -4.73843,13.533159 l -1.45734,1.35278 -1.83082,-1.974633 c -1.00695,-1.08605 -2.5051,-2.411167 -3.32921,-2.944709 -0.88213,-0.571109 -1.49837,-1.475593 -1.49837,-2.199217 0,-1.862565 -3.10542,-7.611374 -5.33919,-9.884003 -1.39825,-1.422573 -2.4678,-2.016343 -3.63201,-2.016343 -2.53798,0 -2.08728,1.558776 1.3843,4.787644 4.50879,4.193551 5.74356,8.968182 3.90299,15.092185 -0.9813,3.265008 -1.68293,4.49014 -4.90607,8.566498 l -2.18372,2.761778 1.53195,0.180328 c 2.64154,0.310943 5.66117,-3.277663 8.1692,-9.708466 0.7405,-1.898723 1.51396,-3.452225 1.71878,-3.452225 0.20483,0 1.01706,0.756983 1.80496,1.682184 3.85935,4.531931 3.08953,13.322194 -1.54068,17.592148 l -1.43437,1.322764 -2.25526,-2.013211 c -1.24039,-1.107262 -2.49125,-2.013207 -2.77968,-2.013207 -1.16723,0 -1.21591,1.299647 -0.10036,2.678829 3.69846,4.572464 5.65916,10.745155 5.65916,17.816199 0,6.430341 -1.42793,10.948339 -4.63279,14.658177 -2.60161,3.011539 -8.00185,7.943259 -8.66255,7.910972 -0.22033,-0.01077 -1.0295,-0.374794 -1.79815,-0.808956 -0.76865,-0.434163 -2.08933,-0.7982 -2.93484,-0.808959 -2.24963,-0.02867 -2.06101,2.166251 0.41926,4.878892 2.1768,2.380743 2.38337,3.906538 1.42016,10.4895293 -0.86909,5.9397503 -3.53352,8.59547476 -9.7406,9.70877126 -1.95056,0.34985644 -2.13061,0.2872366 -1.77149,-0.6161035 0.77911,-1.95983166 1.47384,-7.54724006 1.13047,-9.09197056 -0.6303,-2.8355145 -2.46903,-2.4925995 -2.48985,0.4643489 -0.004,0.6685887 -0.27783,2.4562044 -0.60693,3.9724819 -0.54718,2.5209567 -0.74565,2.7714339 -2.31945,2.9270552 -1.80205,0.1781953 -2.14055,0.5552061 -3.44073,3.8322069 -0.69288,1.7463345 -1.30665,2.2094396 -4.75832,3.5903122 -3.83614,1.5346723 -4.8338,2.5230453 -3.17979,3.1501863 1.16688,0.442442 4.55719,-0.606608 8.83228,-2.7329366 2.06768,-1.0284161 3.86161,-1.8698465 3.98652,-1.8698465 0.1249,0 0.50852,1.1043095 0.85248,2.4540171 1.46579,5.7517991 0.34002,9.6439591 -4.24773,14.6858231 -3.68151,4.045924 -6.10296,5.115112 -11.00786,4.860528 -2.98871,-0.155131 -4.89267,-0.637465 -7.73754,-1.960173 -2.07535,-0.964927 -3.77337,-2.092804 -3.77337,-2.506393 0,-1.598843 1.48857,-2.685135 4.20578,-3.06918 3.3782,-0.47747 3.93382,-1.948836 0.82538,-2.185716 -4.39263,-0.334757 -4.46748,-0.398758 -4.52112,-3.866001 -0.0732,-4.7332971 -0.70591,-8.5734415 -1.4527,-8.8173001 -0.36472,-0.1191045 -1.04407,0.358141 -1.50965,1.0605441 -0.72435,1.0927828 -0.75672,2.0930989 -0.22433,6.931106 0.77579,7.050086 0.28677,8.931886 -3.22217,12.399014 -3.37643,3.33619 -11.01785,6.377387 -10.1026,4.020729 0.18135,-0.46696 0.71839,-2.170072 1.19344,-3.784693 0.47504,-1.614618 1.48174,-3.509352 2.2371,-4.210519 2.57467,-2.389957 2.3275,-8.28552 -0.42731,-10.192065 -2.08632,-1.4438921 -10.9239,-0.9152931 -11.464,0.685696 -0.15932,0.472242 0.61549,0.67521 2.5775,0.67521 5.48263,0 7.80837,2.16462 6.08121,5.659956 -0.48833,0.988264 -1.27423,3.479352 -1.74646,5.535743 -0.97342,4.239043 -3.48261,8.267729 -5.92742,9.516925 -2.14721,1.097136 -5.75015,0.987305 -9.37577,-0.285808 z m 35.38816,-32.36586044 c 2.50852,-1.62405866 4.29731,-5.38903896 4.60963,-9.70222956 l 0.2812,-3.883221 2.017,0.319552 c 1.10935,0.175754 2.83456,0.481511 3.8338,0.679465 1.66279,0.329398 1.81682,0.242715 1.81682,-1.022393 0,-2.043044 -1.372,-2.828069 -5.61408,-3.212265 -2.96739,-0.268755 -4.18411,-0.661688 -5.54026,-1.789218 -1.84673,-1.535394 -4.87491,-2.58385 -7.47743,-2.588913 -1.48644,-0.0027 -1.55969,-0.111218 -1.21606,-1.79824 0.20111,-0.987335 0.46692,-2.167998 0.59067,-2.623691 0.12377,-0.455693 -0.0117,-1.201373 -0.30102,-1.657066 -0.76578,-1.206136 -1.62839,-0.158664 -4.7344,5.749047 -3.0432,5.788257 -2.77329,6.877746 1.03453,4.175764 l 2.54649,-1.806953 3.78731,1.878893 c 3.01306,1.494786 4.0027,2.314714 4.84087,4.010677 1.54362,3.123412 0.55372,7.053076 -2.80208,11.1235697 -1.37947,1.67326256 -2.35903,3.28064636 -2.17681,3.57196706 0.3793,0.60640554 2.30978,-0.00443 4.50382,-1.4247452 z M 347.73962,-16.461247 c 1.69991,-1.100553 3.62379,-4.105013 3.62379,-5.659165 0,-0.823559 0.4525,-1.265902 1.53729,-1.502802 7.49356,-1.636471 10.1728,-3.824883 15.51276,-12.670871 4.2902,-7.106986 7.93753,-10.892988 11.51402,-11.951755 3.2246,-0.954602 7.45776,0.138654 11.18966,2.889837 2.7537,2.030057 3.05014,2.130227 3.70108,1.250629 2.65247,-3.584248 -2.08022,-6.760526 -11.43229,-7.672608 l -3.79211,-0.369838 -0.0349,-3.117657 c -0.0328,-2.933621 -0.94423,-5.373845 -3.16664,-8.478308 -0.55806,-0.779554 -0.43668,-1.191623 0.70463,-2.39201 1.18779,-1.249273 1.37884,-1.972684 1.37884,-5.220934 0,-3.381108 -0.17636,-3.986026 -1.70684,-5.854446 -2.34399,-2.861556 -5.12595,-4.144846 -9.89846,-4.56606 l -4.0472,-0.357203 -0.165,-3.087946 -0.16499,-3.087944 3.62733,-1.764447 c 2.21061,-1.075305 4.29536,-2.59784 5.33771,-3.898224 2.03354,-2.536959 3.91345,-6.451361 3.93057,-8.184341 0.0118,-1.20055 0.19238,-1.24281 5.31019,-1.24281 4.30062,0 6.00298,-0.26222 9.04346,-1.39301 2.92294,-1.08709 3.84467,-1.23872 4.19684,-0.69044 0.2482,0.38642 0.45513,0.88034 0.45984,1.09761 0.0172,0.79118 3.57042,4.37776 5.12306,5.171098 3.47369,1.774912 10.36399,2.203363 9.82681,0.611051 -0.11048,-0.327486 -1.90035,-1.004808 -3.97749,-1.505169 -4.35369,-1.04874 -5.77913,-2.22197 -8.01707,-6.59859 -0.85207,-1.66633 -1.97087,-3.10989 -2.48624,-3.20791 -0.51538,-0.098 -1.99057,0.47893 -3.27822,1.2821 -3.48663,2.17478 -6.41422,3.02385 -10.42625,3.02385 -4.56189,0 -5.76,-0.60605 -5.77139,-2.91931 -0.015,-3.03913 -1.48487,-8.14836 -2.58006,-8.9679 -1.50476,-1.12603 -3.00138,-1.01583 -3.00138,0.22099 0,0.57087 0.66552,2.47433 1.47893,4.22988 3.58778,7.74332 0.61275,17.053799 -6.62758,20.741281 -1.14072,0.580968 -3.13692,1.056309 -4.436,1.056309 -2.17973,0 -2.61135,-0.266281 -5.59438,-3.451452 l -3.23243,-3.451441 -3.40059,1.847207 c -4.16515,2.262516 -5.06498,2.112502 -9.57537,-1.596343 -1.83136,-1.505915 -3.56824,-2.738021 -3.85974,-2.738021 -0.99801,0 -0.53084,3.149537 0.74457,5.019562 0.70102,1.027834 1.89592,2.179448 2.65534,2.559143 1.75003,0.874969 7.28749,0.905502 10.15706,0.05601 2.17494,-0.643857 2.21967,-0.626955 4.30379,1.625865 1.50611,1.62802 2.84922,2.461399 4.71504,2.925625 l 2.60904,0.649128 v 2.437769 c 0,3.068133 -0.96257,5.342038 -3.55257,8.392373 -2.43305,2.86549 -2.51751,3.399966 -0.5373,3.399966 1.06848,0 2.27575,-0.794913 4.19442,-2.76178 2.26144,-2.318249 3.02007,-2.761781 4.72378,-2.761781 4.74737,0 9.30299,2.618103 10.22093,5.873932 0.38798,1.376131 0.19348,2.374702 -0.9482,4.868038 l -1.43631,3.136773 1.87916,3.620124 c 1.38582,2.669728 1.86874,4.302227 1.83949,6.218295 -0.0482,3.154968 -0.82043,4.69714 -4.85366,9.692545 -1.71349,2.122268 -4.16618,5.787618 -5.4504,8.145223 -4.93036,9.051223 -7.62797,10.859734 -17.16302,11.506333 -3.48927,0.236614 -6.47887,0.563354 -6.64357,0.726091 -0.1647,0.162729 -0.15049,0.679435 0.0316,1.148232 0.23767,0.611958 1.12429,0.852356 3.14366,0.852356 1.54695,0 2.81264,0.129218 2.81264,0.287152 0,0.157936 -0.60425,1.756504 -1.34278,3.552366 -1.6359,3.977996 -1.40879,4.614586 1.07309,3.007777 z m 48.70607,-3.118893 c 0.73263,-2.104079 1.01343,-4.586707 1.02321,-9.046755 l 0.0134,-6.14689 2.54705,-3.189502 c 1.40087,-1.754228 2.78444,-3.213651 3.0746,-3.243162 1.08799,-0.11066 3.28561,5.4414 3.50572,8.856847 0.25942,4.025593 -0.47938,6.557913 -2.72942,9.355484 -3.09752,3.851266 -1.3512,4.471104 2.77198,0.983884 2.36137,-1.997153 3.39925,-4.42262 3.40486,-7.956958 l 0.003,-1.963624 4.3324,-0.715119 c 5.72869,-0.945599 7.966,-1.88814 7.966,-3.355943 0,-1.735513 -1.5172,-1.964786 -4.26691,-0.644792 -1.53498,0.736866 -3.47153,1.169669 -5.1116,1.142403 l -2.64038,-0.04391 -2.39847,-4.738314 -2.39849,-4.738311 1.7333,-2.131154 c 0.95332,-1.172133 2.49657,-3.74278 3.42945,-5.712553 0.93289,-1.969767 1.88016,-3.581399 2.10504,-3.581399 0.22489,0 0.99375,0.615149 1.70859,1.366986 0.71484,0.751845 2.34558,1.76165 3.62387,2.24402 2.88409,1.088315 7.84921,0.913639 7.84921,-0.276153 0,-0.739731 -0.71745,-0.990744 -5.64282,-1.974229 -0.64388,-0.128567 -2.46767,-1.254123 -4.05288,-2.501244 l -2.88241,-2.26747 -0.0182,-6.443198 c -0.0143,-5.052437 -0.26135,-7.098932 -1.14453,-9.481148 -0.61945,-1.670878 -1.25941,-3.434897 -1.42212,-3.920044 -0.20474,-0.610479 0.2566,-1.10818 1.49831,-1.616386 3.75604,-1.537272 6.67675,-5.008927 6.67675,-7.936258 0,-2.848264 -1.19655,-2.326672 -4.7141,2.054918 -1.17772,1.467013 -2.9948,3.06945 -4.03795,3.560965 l -1.89664,0.893667 -3.48017,-3.354814 c -4.03819,-3.892706 -7.74514,-6.150279 -10.46334,-6.372276 -3.05598,-0.249583 -2.81506,1.292143 0.47871,3.063475 7.8909,4.243579 13.08074,9.882122 14.95303,16.245848 1.94191,6.600347 0.43851,16.113947 -3.65319,23.117459 -2.34124,4.007365 -6.93207,8.775992 -10.45081,10.855555 -1.66028,0.981231 -3.14994,2.192595 -3.31034,2.691922 -0.16038,0.499331 0.24421,2.322921 0.8991,4.052425 1.37562,3.632862 1.4658,5.607925 0.47983,10.509195 -0.57934,2.87995 -0.57702,3.693199 0.0125,4.395129 1.14611,1.364517 1.54827,1.052134 2.62443,-2.038574 z m -45.28308,-19.462678 c 4.50844,-3.195599 5.76741,-3.712709 8.94772,-3.675177 2.72873,0.0322 2.9917,-0.07237 2.98389,-1.186642 -0.0143,-2.03931 -0.81293,-2.671839 -4.21964,-3.341939 -2.79785,-0.550337 -3.41734,-0.904005 -4.34685,-2.481653 -1.51697,-2.574713 -1.86895,-8.455808 -0.73645,-12.305043 0.76862,-2.612443 1.12732,-3.086254 2.68672,-3.548908 0.98982,-0.293664 1.9035,-0.854836 2.03039,-1.247048 0.18099,-0.559413 -1.08396,-0.678458 -5.86924,-0.552356 l -6.09996,0.160752 -3.17654,-2.364271 c -3.97408,-2.957858 -4.74618,-3.257931 -5.22309,-2.029929 -0.27191,0.700124 0.32167,1.619001 2.14609,3.322222 2.61883,2.444859 5.40159,3.549212 8.95664,3.554497 l 2.07153,0.0033 -0.81373,2.27887 c -0.44756,1.253147 -0.81374,3.952278 -0.81374,5.997843 0,3.034556 0.30742,4.318193 1.66998,6.97309 0.91849,1.789639 1.67315,3.548063 1.67705,3.907619 0.004,0.359552 -1.73561,2.214473 -3.86556,4.122039 -2.12996,1.907565 -3.75024,3.664008 -3.60063,3.903199 0.60775,0.971633 3.03339,0.325499 5.59542,-1.490482 z M 362.23624,-118.954 c 2.41176,-1.08577 3.21975,-5.93223 1.68896,-10.13069 -0.44307,-1.21518 -0.80937,-2.30697 -0.81399,-2.4262 -0.004,-0.11922 1.4832,-0.0627 3.30629,0.12555 4.57158,0.47214 8.39975,2.02455 11.63089,4.71663 3.37477,2.81173 4.33439,2.93919 3.84278,0.51044 -0.45061,-2.22617 -1.91822,-3.77948 -5.2608,-5.56797 -4.82837,-2.58349 -15.18803,-3.48748 -19.66813,-1.71627 -2.20398,0.87135 -2.33868,0.85433 -6.57977,-0.83151 -4.87065,-1.93607 -8.72116,-2.30374 -8.4236,-0.80434 0.10656,0.53695 1.32799,1.28165 2.97583,1.81435 1.5373,0.49696 3.79683,1.57847 5.02118,2.40336 1.83537,1.23655 2.83879,1.49979 5.71705,1.49979 3.11888,0 3.58984,0.1491 4.41868,1.39901 0.91821,1.38466 0.87075,5.07413 -0.10813,8.4053 -0.41359,1.40747 0.13746,1.55486 2.25276,0.60255 z m 36.88527,-7.57196 c 0.46573,-1.4073 1.23366,-4.78246 1.70653,-7.50035 0.847,-4.86831 0.841,-4.97894 -0.40442,-7.45681 -0.97828,-1.94637 -1.88602,-2.81966 -4.01393,-3.86154 -3.22964,-1.58134 -8.55025,-1.82788 -11.22569,-0.52015 -1.59109,0.7777 -1.84899,0.72752 -5.03116,-0.97886 -1.84476,-0.98921 -4.98924,-2.17924 -6.98773,-2.64448 -3.88404,-0.90421 -12.21272,-1.0981 -16.00228,-0.37255 l -2.30633,0.44158 -0.27583,-3.39532 c -0.42644,-5.24917 -2.12016,-7.06107 -6.68745,-7.15404 -3.55125,-0.0723 -3.44286,1.29269 0.32078,4.03993 3.34821,2.44399 3.99299,3.63004 3.47022,6.3834 -0.27772,1.46271 -0.96708,2.19366 -3.56065,3.77544 -3.84033,2.34213 -5.30998,3.83565 -5.05467,5.13677 0.32003,1.63099 1.21362,1.42303 4.10917,-0.95627 9.18684,-7.54888 22.83022,-7.98819 32.19348,-1.03661 l 2.863,2.12557 2.31326,-0.97519 c 5.11091,-2.1546 9.55146,-1.88504 12.03854,0.73078 1.96943,2.07138 2.05028,4.88368 0.32301,11.23473 -0.83954,3.08695 -1.36326,6.03279 -1.16382,6.54635 0.33835,0.87122 0.43514,0.86887 1.44592,-0.035 0.5958,-0.53278 1.46433,-2.12011 1.93005,-3.52741 z"
         style="opacity:1;fill:#f4e3d7;fill-opacity:1;stroke:none;stroke-width:0.52916658;stroke-linecap:round;stroke-linejoin:round;stroke-miterlimit:4;stroke-dasharray:none;stroke-dashoffset:0;stroke-opacity:1;paint-order:normal" />
      <path
         inkscape:connector-curvature="0"
         id="path959"
         d="m 433.25955,-107.3762 c -4.93895,-1.21898 -6.98773,-2.03352 -6.98773,-2.77815 0,-0.27039 0.26368,-0.3306 0.58595,-0.13379 0.58422,0.35676 4.44522,-3.25757 4.44522,-4.16122 0,-0.94808 2.34444,-1.17726 5.04558,-0.49323 3.0963,0.78411 3.10554,0.78091 3.6222,-1.25309 0.56635,-2.22963 -1.10963,-3.53743 -5.10582,-3.98416 l -3.30909,-0.36992 -0.99197,-2.75966 c -0.54558,-1.51781 -1.77473,-3.64054 -2.73145,-4.7172 -1.82908,-2.05838 -6.3792,-4.64838 -8.16629,-4.64838 -0.95783,0 -1.02939,-0.36078 -0.79437,-4.00458 0.30832,-4.78018 -1.22013,-9.9078 -5.25328,-17.62366 -4.99895,-9.56355 -9.58804,-11.78929 -24.30742,-11.78929 h -8.73035 l -3.91933,1.98616 -3.91934,1.98615 -0.25474,-3.9194 c -0.45661,-7.02539 -3.18579,-10.2715 -8.6358,-10.2715 h -2.75292 l -0.64888,-2.3972 c -0.81421,-3.00793 -4.90845,-7.60499 -8.15711,-9.15889 -2.04171,-0.9766 -3.45393,-1.14809 -9.45458,-1.14809 -3.87988,0 -7.63672,0.21216 -8.34852,0.47148 -0.71181,0.25931 -1.98597,0.63688 -2.83149,0.83906 -3.86799,0.92486 -0.21545,-3.79706 6.2546,-8.08583 4.39441,-2.9129 5.17954,-3.64267 4.71613,-4.38354 -0.56634,-0.90546 -2.31334,-0.37303 -6.48677,1.97696 l -4.29351,2.4176 -0.63821,-3.03759 c -0.93414,-4.44611 -0.8469,-10.0903 0.18602,-12.0343 0.47897,-0.90142 1.99712,-2.72197 3.37369,-4.04565 l 2.50284,-2.40668 0.3801,1.70991 c 0.55829,2.5116 1.21143,2.56544 2.71711,0.22396 2.69969,-4.19829 4.88982,-5.23977 11.0036,-5.23258 4.60574,0.005 9.99402,1.48283 13.15956,3.60825 1.01041,0.67841 4.13739,3.2121 6.94886,5.63042 4.30387,3.70204 4.96555,4.48426 4.18665,4.94932 -0.50881,0.3038 -3.18819,1.98602 -5.95418,3.73826 l -5.02907,3.18591 -1.7045,-1.41715 c -3.26538,-2.71489 -6.66409,-3.94794 -10.08024,-3.65707 -1.68177,0.1432 -1.07982,1.08477 1.67706,2.62328 7.65056,4.26945 8.18048,4.88165 9.879,11.41299 0.63889,2.45671 1.46678,4.56548 1.83976,4.68617 1.10532,0.35765 1.48858,-2.55269 0.81054,-6.15516 -0.60668,-3.2234 -0.57721,-3.41709 0.71418,-4.69309 1.22715,-1.21252 1.49937,-1.26856 3.05988,-0.62987 0.9421,0.38557 2.59607,1.66696 3.6755,2.84752 2.63301,2.87969 2.69663,5.99292 0.22894,11.2034 -1.58258,3.34161 -1.81947,5.30114 -0.64086,5.30114 0.25061,0 1.81732,-0.86681 3.48158,-1.92625 4.01974,-2.55891 6.32015,-3.24552 9.59124,-2.86273 3.06845,0.35908 3.592,-0.42348 1.60009,-2.39165 -1.17846,-1.16442 -1.65442,-1.26235 -5.42302,-1.11588 l -2.34843,0.0913 -0.89778,-3.2161 c -0.49379,-1.76886 -1.30459,-4.16045 -1.80177,-5.31464 -0.85073,-1.97492 -3.59274,-4.85686 -5.26708,-5.53587 -1.98568,-0.80528 6.56025,-5.09452 11.89424,-5.96979 1.96039,-0.32168 5.32525,-0.44484 7.47747,-0.27369 7.70902,0.61303 12.54673,2.93858 15.42515,7.41509 1.63658,2.54519 4.7875,11.53116 4.23487,12.07721 -0.44784,0.44249 -8.27906,1.30705 -8.82415,0.97418 -0.27173,-0.16593 -0.49956,-0.84629 -0.50632,-1.5119 -0.007,-0.66561 -0.50137,-2.27497 -1.09916,-3.57636 -1.48505,-3.23302 -4.35174,-4.50971 -10.16296,-4.52616 -4.74594,-0.0135 -6.05517,0.29109 -6.05517,1.40843 0,1.20703 1.93219,1.89358 5.3292,1.89358 3.85395,0 6.73662,1.25409 8.15115,3.54611 1.73465,2.81072 1.38347,3.66342 -2.99875,7.28115 -4.44331,3.66815 -6.06329,5.91116 -5.01636,6.94561 0.47411,0.46846 1.28977,0.0806 3.21785,-1.53014 7.4125,-6.19248 11.13738,-7.69228 18.11334,-7.29326 8.09165,0.46283 13.83206,4.44364 18.16996,12.60029 2.44527,4.59791 3.21004,8.81966 2.55011,14.07746 -0.2539,2.02288 -0.55529,3.77052 -0.66976,3.88362 -0.11447,0.11311 -2.46329,-0.18144 -5.21959,-0.65455 -3.83664,-0.65855 -5.38249,-0.71628 -6.5942,-0.24622 -2.54393,0.98686 -1.48347,1.95709 2.51533,2.30127 6.71747,0.57817 9.07052,3.43967 8.76201,10.65525 l -0.19129,4.47422 2.67377,1.43632 c 8.15032,4.37826 11.89616,13.54953 8.82076,21.5966 -1.44386,3.778 -3.41339,6.77882 -4.52647,6.89661 -0.45038,0.0477 -2.83133,-0.41003 -5.29101,-1.01711 z"
         style="opacity:1;fill:#e3dedb;fill-opacity:1;stroke:none;stroke-width:0.52916658;stroke-linecap:round;stroke-linejoin:round;stroke-miterlimit:4;stroke-dasharray:none;stroke-dashoffset:0;stroke-opacity:1;paint-order:normal" />
      <path
         inkscape:connector-curvature="0"
         id="path961"
         d="m 342.97814,32.613503 c -5.39938,-1.674205 -8.82826,-4.786594 -9.88412,-8.971799 -0.29272,-1.160234 -0.2614,-7.779766 0.0432,-9.113871 0.13868,-0.607592 0.27139,-1.267861 0.29492,-1.467267 0.0643,-0.544535 2.27885,0.138796 2.27885,0.703155 0,0.268361 0.26217,0.487932 0.58261,0.487932 0.32044,0 0.88644,0.251875 1.25779,0.55972 5.84278,4.843627 8.58985,5.783911 7.31613,2.504228 -0.19072,-0.491102 -1.38562,-1.601894 -2.65533,-2.468434 -2.38983,-1.630986 -8.73727,-7.6668641 -8.73727,-8.3083948 0,-0.2002831 -0.50837,-0.9033094 -1.1297,-1.5622826 -0.62133,-0.6589706 -1.08753,-1.2651029 -1.03601,-1.3469516 0.25935,-0.4119865 -0.77498,-2.63442404 -1.22607,-2.63442404 -0.28675,0 -0.48141,-0.1864196 -0.4326,-0.4142674 0.0488,-0.2278454 -0.11812,-0.8858991 -0.37095,-1.4623382 -0.27547,-0.62803446 -0.17832,-1.73488446 0.24239,-2.76178006 0.38616,-0.9425404 0.72079,-2.0244065 0.74364,-2.4041513 0.0228,-0.3797447 0.25116,-0.6904444 0.50737,-0.6904444 0.25622,0 0.46585,-0.2815468 0.46585,-0.6256536 0,-0.3441121 0.55835,-1.1041374 1.24077,-1.6889447 1.24623,-1.0679613 4.2177,-1.2471683 6.02647,-0.3634499 2.62225,1.2811736 7.41841,2.3514064 10.34183,2.3077222 3.83803,-0.057357 13.82999,-2.5245821 15.92342,-3.9318246 l 1.40614,-0.94523 -1.82844,-0.173942 c -1.00564,-0.09567 -3.26967,0.245551 -5.03116,0.758268 -4.52079,1.315857 -6.63468,1.6329354 -10.46996,1.5704767 -3.89536,-0.06344 -5.41365,-0.3400247 -8.21486,-1.4964997 -1.11969,-0.462255 -2.18208,-0.695913 -2.36089,-0.519235 -0.1788,0.176676 -0.3251,0.01657 -0.3251,-0.355783 0,-0.37236 -0.25156,-0.523396 -0.55902,-0.33564 -0.30746,0.187756 -0.55902,0.03673 -0.55902,-0.335639 0,-0.37236 -0.15258,-0.526247 -0.33907,-0.34198 -0.1865,0.18427 -0.62672,0.09294 -0.97828,-0.202957 -0.35157,-0.295892 -1.14232,-0.883119 -1.75725,-1.304941 -1.01139,-0.693799 -1.10236,-1.288347 -0.95364,-6.233252 0.0904,-3.006462 -0.0958,-6.142508 -0.4138,-6.968981 -0.31802,-0.826473 -0.72858,-2.922095 -0.91235,-4.656939 -0.18379,-1.734841 -0.52834,-4.196048 -0.76569,-5.469356 -0.23734,-1.273302 -0.22258,-3.62119 0.0328,-5.217526 0.25539,-1.596335 0.34811,-3.017272 0.20606,-3.157637 -0.14206,-0.140364 0.0269,-0.594786 0.37554,-1.009827 0.3486,-0.415035 0.48649,-0.90019 0.30642,-1.078126 -0.18008,-0.177933 0.24268,-1.228303 0.93946,-2.334163 0.69677,-1.10586 1.43145,-2.451272 1.63261,-2.989803 0.5804,-1.553789 1.89006,-1.705311 3.93676,-0.455455 1.04335,0.637137 2.05596,1.158427 2.25027,1.158427 0.61959,0 0.37461,-1.329293 -0.55988,-3.037955 -2.22422,-4.06685 -5.78829,-11.078629 -5.79151,-11.393932 -0.002,-0.190745 -0.42849,-1.309263 -0.94787,-2.485601 -0.51937,-1.176329 -0.99104,-2.325206 -1.04816,-2.553054 -0.0571,-0.227848 -0.15226,-0.476406 -0.21144,-0.552357 -0.0592,-0.07595 -0.21648,-1.008048 -0.34954,-2.071334 -0.13305,-1.063285 -0.46513,-3.176045 -0.73794,-4.695024 -0.85736,-4.773774 -0.6982,-13.49228 0.32771,-17.951563 0.5242,-2.278472 0.90235,-4.329092 0.84035,-4.556942 -0.062,-0.22784 0.0816,-0.41426 0.31916,-0.41426 0.23755,0 0.90605,-0.86997 1.48558,-1.93325 0.57952,-1.06329 1.22889,-1.93325 1.44303,-1.93325 0.21415,0 1.11788,-0.66711 2.0083,-1.48248 0.89041,-0.81537 1.61892,-1.40003 1.61892,-1.29922 0,0.34412 5.03013,-2.33631 5.37317,-2.86323 0.1881,-0.28893 0.5171,-0.47714 0.73111,-0.41823 0.214,0.0589 1.85061,-0.66259 3.63691,-1.60334 5.66282,-2.98227 6.0988,-4.85754 0.72354,-3.11218 -1.75862,0.57103 -3.44905,1.2079 -3.75651,1.41526 -0.30746,0.20737 -2.31992,1.06054 -4.47214,1.89592 -2.15223,0.83539 -4.16469,1.67009 -4.47215,1.85491 -1.38537,0.83272 -3.63362,-0.11306 -3.63362,-1.52858 0,-0.32549 -0.25155,-0.59181 -0.55901,-0.59181 -0.30747,0 -0.50746,-0.18642 -0.44443,-0.41427 0.063,-0.22785 -0.20507,-1.33744 -0.59575,-2.46576 -0.74379,-2.14812 -0.54386,-5.1658 0.40431,-6.10268 0.36882,-0.36442 1.06564,-0.15349 2.06893,0.6263 1.59997,1.24352 3.31106,1.52919 3.86406,0.64509 0.18257,-0.29188 -0.50728,-1.7211 -1.53299,-3.17604 -3.47596,-4.93057 -5.44826,-8.95896 -6.32616,-12.92111 -0.75765,-3.41944 -0.86423,-4.48684 -1.03288,-10.34469 -0.19103,-6.6357 0.49881,-9.85655 4.3996,-20.54158 1.53114,-4.19408 1.75629,-5.80079 0.88726,-6.33148 -0.52309,-0.31944 -1.32923,0.41042 -3.02057,2.73477 -0.75366,1.03573 -0.83644,0.98383 -1.76179,-1.10471 -1.65947,-3.74548 -1.19629,-6.08377 1.7687,-8.92885 1.03439,-0.99256 1.88457,-1.62263 1.88928,-1.40015 0.005,0.22247 0.21375,0.085 0.46455,-0.30559 0.25079,-0.39055 1.16631,-0.83737 2.03448,-0.99292 0.86818,-0.15555 1.97981,-0.46719 2.4703,-0.69253 0.84221,-0.38693 6.28483,-0.33206 8.71805,0.0879 0.61492,0.10613 2.09211,0.60663 3.28263,1.11223 1.19052,0.50559 2.24029,0.91925 2.33282,0.91925 0.23929,0 3.60835,3.35833 3.60835,3.59685 0,0.10875 0.29337,0.89745 0.65194,1.75266 0.78307,1.86774 0.86514,2.14371 0.95524,3.21201 0.11764,1.39478 2.21811,3.03795 3.88342,3.03795 2.85043,0 6.47045,1.57211 7.42378,3.224 1.19281,2.06684 0.94899,6.68578 -0.55874,10.5849 -1.92951,4.98993 -1.43711,5.61668 2.03746,2.59342 2.0404,-1.77536 6.94448,-5.0765 9.52274,-6.41014 1.23132,-0.63692 14.2433,-0.89216 17.45149,-0.34232 3.65096,0.62573 4.70667,0.97733 6.737,2.24375 1.20179,0.74962 2.38573,1.36294 2.63097,1.36294 0.65827,0 2.33153,2.06472 1.96597,2.42592 -0.17248,0.17042 0.0997,0.46658 0.60494,0.65813 0.5052,0.19155 0.91854,0.65649 0.91854,1.03319 0,0.37672 0.50311,1.25811 1.11803,1.95867 0.61493,0.70056 1.11805,1.48428 1.11805,1.74159 0,0.2573 -0.005,0.59472 -0.0113,0.7498 -0.006,0.15508 0.37621,1.02244 0.84985,1.92746 0.47365,0.90502 0.85469,1.71024 0.84674,1.78937 -0.008,0.0791 0.50868,2.00808 1.14803,4.28654 0.72889,2.5975 1.02333,4.76074 0.78942,5.79974 -0.20517,0.91139 -0.49472,2.55451 -0.64345,3.65138 -0.25927,1.91219 -0.17079,2.03562 2.14854,2.99754 1.33042,0.55177 2.54472,1.0218 2.69845,1.0445 0.15373,0.0227 1.09707,0.61708 2.09631,1.32083 0.99925,0.70375 1.81682,1.13835 1.81682,0.96577 0,-0.17259 0.46321,0.12118 1.02935,0.65283 0.56615,0.53164 0.9382,1.13776 0.82677,1.34694 -0.11141,0.20918 0.24294,0.6366 0.78745,0.94983 0.54453,0.31323 0.77245,0.57707 0.50649,0.5863 -0.26596,0.009 -0.0981,0.59806 0.37301,1.30849 0.78612,1.18548 0.74219,1.62837 -0.53407,5.38548 -0.76485,2.25157 -1.49936,4.42647 -1.63224,4.8331 -0.14574,0.44597 -1.27403,-0.54031 -2.84353,-2.48561 -6.65914,-8.25364 -9.43166,-10.16834 -14.93576,-10.3146 -5.07734,-0.13492 -4.49928,1.02276 1.7483,3.50126 2.84401,1.12826 5.17092,1.99148 5.17092,1.91825 0,-0.0732 1.00624,0.86113 2.23607,2.07631 1.22984,1.21518 2.23608,2.42873 2.23608,2.69679 0,0.26806 0.25156,0.48738 0.55902,0.48738 0.30745,0 0.55901,0.37284 0.55901,0.82853 0,0.4557 0.18866,0.82947 0.41926,0.8306 0.23059,8.5e-4 0.89833,1.1818 1.48384,2.62369 0.58552,1.4419 1.2914,2.91243 1.5686,3.26784 0.27721,0.35542 2.37497,0.81945 4.66168,1.03118 8.48668,0.78579 15.78403,6.09661 15.53088,11.302971 -0.0846,1.741319 -0.47739,3.920068 -0.77163,4.280757 -0.062,0.07595 -0.17256,0.324509 -0.2458,0.552358 -0.5772,1.795845 -1.72759,4.004579 -2.08573,4.004579 -0.24005,0 -0.43645,0.281779 -0.43645,0.626178 0,0.344399 -0.64161,1.170927 -1.4258,1.836727 l -1.42579,1.210549 -3.32028,-3.321632 c -2.23215,-2.23307 -3.43492,-3.925476 -3.67012,-5.164212 -0.43683,-2.300811 -4.01146,-7.834666 -6.11888,-9.472602 -1.64795,-1.280833 -3.6337,-1.393973 -4.02184,-0.229145 -0.12381,0.371604 1.0394,1.925102 2.58494,3.452221 1.54553,1.527121 2.67913,2.776577 2.51911,2.776577 -0.16003,0 0.27134,0.780271 0.95861,1.733939 1.52118,2.110856 1.90088,7.965602 0.70065,10.803927 -0.42285,0.999961 -0.79609,2.00572 -0.82941,2.23502 -0.12234,0.841848 -1.04365,2.950755 -1.57605,3.607577 -0.30128,0.371698 -1.3112,1.578589 -2.24428,2.681982 -2.00465,2.370572 -2.13678,3.241214 -0.4919,3.241214 1.84983,0 5.1339,-3.839809 6.90305,-8.071197 2.22767,-5.32804 2.53473,-5.577003 4.36927,-3.54259 0.82895,0.919261 1.37299,1.671379 1.20899,1.671379 -0.16399,0 0.0632,0.690589 0.50499,1.534645 0.82449,1.575401 0.86833,6.065381 0.0907,9.292747 -0.22707,0.942439 -1.37154,2.80664 -2.54324,4.142668 l -2.13039,2.429149 -1.58963,-1.451484 c -3.57218,-3.261751 -5.79777,-3.134097 -3.43204,0.196852 0.70586,0.993845 1.49354,1.959058 1.7504,2.14492 0.25686,0.185869 0.46757,0.490869 0.46825,0.677791 0.004,1.021384 0.65919,2.574591 1.0865,2.574591 0.2716,0 0.46403,0.186422 0.42762,0.414266 -0.0364,0.227849 -0.005,0.600687 0.0699,0.828535 0.0748,0.227848 0.19897,0.662828 0.27584,0.966621 0.0769,0.303797 0.19216,0.614496 0.25621,0.690445 0.63757,0.755965 1.0365,14.58952 0.47388,16.432587 -0.56435,1.848767 -2.03828,4.805191 -3.30453,6.62827 -1.65141,2.377606 -6.28597,7.180627 -6.92878,7.180627 -0.25909,0 -0.88547,0.370558 -1.39196,0.823457 -0.817,0.730558 -1.18098,0.722509 -3.2262,-0.07129 -2.41407,-0.936985 -4.04668,-0.738517 -4.04668,0.491927 0,0.399526 0.89773,2.085104 1.99497,3.745736 1.931,2.922519 1.98446,3.143302 1.66719,6.885822 -0.43603,5.1434723 -0.56157,5.7971057 -1.48016,7.7067217 -0.91139,1.8946743 -3.08921,4.19313886 -3.54567,3.7421078 -0.17237,-0.1703074 -0.31339,-0.019658 -0.31339,0.33475906 0,0.3544299 -0.18867,0.6149822 -0.41926,0.5790085 -0.2306,-0.035962 -0.54505,-0.016951 -0.69878,0.042253 -0.15373,0.059221 -0.78262,0.2297916 -1.39754,0.3790506 -3.60941,0.87608964 -4.40899,0.4221817 -3.5492,-2.01483506 0.71436,-2.0247811 0.37408,-8.9655636 -0.45276,-9.2353296 -0.62144,-0.202752 -0.88044,0.562884 -1.62997,4.8183505 -0.18728,1.063283 -0.38735,2.1818041 -0.44461,2.4856004 -0.23544,1.2492185 -1.0524,1.9332458 -2.30895,1.9332458 -1.0564,0 -1.7014,0.6852531 -3.11948,3.3141348 -1.534,2.8437658 -2.13206,3.5200209 -2.88975,3.2675719 -0.0769,-0.025618 -1.46043,0.608872 -3.0746,1.4099544 -6.13133,3.0428901 -1.6093,3.5029741 5.17092,0.5261081 2.45968,-1.0799281 4.74144,-2.080605 5.07058,-2.2237308 0.92165,-0.4007775 1.81377,3.2455008 1.66427,6.8022039 -0.1328,3.159225 -1.25858,6.788573 -2.10576,6.788573 -0.24005,0 -0.43646,0.372842 -0.43646,0.828535 0,0.455692 -0.23733,0.828534 -0.5274,0.828534 -0.29009,0 -0.93835,0.687355 -1.44061,1.527468 -1.86173,3.114108 -9.55968,6.395186 -11.98955,5.110261 -0.63171,-0.334059 -1.46018,-0.557259 -1.84102,-0.496014 -0.38084,0.06125 -1.44712,-0.199135 -2.3695,-0.578626 -0.92238,-0.37949 -2.17934,-0.78973 -2.79325,-0.91164 -0.6139,-0.12191 -1.20139,-0.474233 -1.30553,-0.782926 -0.10414,-0.308701 -0.35653,-0.474872 -0.56087,-0.369273 -0.20433,0.105599 -0.81263,-0.266572 -1.35177,-0.827048 -0.9373,-0.974383 -0.91948,-1.071266 0.40663,-2.210555 0.76278,-0.655331 2.20136,-1.279615 3.19683,-1.387291 3.84611,-0.416042 3.44477,-2.236999 -0.54392,-2.46792 -1.89558,-0.109749 -2.44578,-0.374167 -2.6475,-1.272359 -0.25986,-1.157046 -0.72123,-6.1003491 -0.80178,-8.5906195 -0.0246,-0.7594898 -0.2732,-1.7377442 -0.55252,-2.1739062 -0.42697,-0.6667155 -0.652,-0.6748078 -1.41293,-0.050818 -0.77291,0.6338119 -0.86962,1.7781943 -0.66227,7.8362897 0.20101,5.872591 0.0819,7.405927 -0.69164,8.905125 -1.096,2.124132 -3.1119,4.228217 -5.08596,5.308448 -7.25775,3.971561 -8.49332,3.760336 -6.67986,-1.141951 0.52893,-1.429878 0.82111,-2.738706 0.64927,-2.908508 -0.17185,-0.169794 -0.019,-0.308715 0.33974,-0.308715 0.35871,0 0.65219,-0.24856 0.65219,-0.552357 0,-0.303796 0.48908,-1.035612 1.08685,-1.626256 1.78013,-1.758912 2.0108,-4.588023 0.6076,-7.452094 -1.01114,-2.063877 -1.55183,-2.5482481 -3.18171,-2.8503701 -1.95829,-0.363002 -7.12622,0.02652 -8.80701,0.6638201 -1.70965,0.648234 -0.86055,1.323308 1.76925,1.406624 3.73954,0.118487 3.69338,0.108429 5.31431,1.157845 1.51903,0.983446 1.6139,2.080424 0.46583,5.386296 -0.68159,1.962626 -1.90056,6.252525 -1.95815,6.891296 -0.0267,0.296565 -0.36539,0.875861 -0.75254,1.287332 -0.38715,0.411472 -0.56097,0.976649 -0.38627,1.255951 0.1747,0.279305 0.11089,0.507826 -0.1418,0.507826 -0.2527,0 -0.70777,0.539761 -1.01128,1.199475 -1.00886,2.192902 -3.33693,3.390404 -6.8159,3.505924 -1.78157,0.05915 -3.61657,-0.0094 -4.07775,-0.152447 z m 33.83407,-33.36124834 c 2.95433,-2.56302016 4.32426,-5.59929086 4.39718,-9.74572766 l 0.0615,-3.496428 2.76257,0.327951 c 1.51941,0.180377 3.34321,0.471949 4.05288,0.647938 0.96287,0.23879 1.29031,0.08533 1.29031,-0.604735 0,-2.567394 -1.36648,-3.328806 -6.81191,-3.795645 -1.13313,-0.09714 -3.08792,-0.848594 -4.34395,-1.669897 -1.25604,-0.8213 -3.72496,-1.820919 -5.48649,-2.221376 -2.87765,-0.654184 -3.18852,-0.862901 -3.06223,-2.055936 0.42802,-4.043487 0.16376,-5.339867 -0.94989,-4.659801 -0.64703,0.395126 -2.69635,4.1121 -2.7166,4.927284 -0.007,0.269826 -0.22235,0.642667 -0.47921,0.828534 -0.86856,0.628498 -2.53165,4.347462 -2.33719,5.226362 0.15902,0.718734 0.67951,0.572745 2.94697,-0.82656 2.63172,-1.624097 2.82037,-1.660631 4.25396,-0.823889 0.82505,0.481567 1.66118,0.716423 1.85805,0.521894 0.19687,-0.194523 0.35795,-0.04903 0.35795,0.323331 0,0.37236 0.23007,0.536517 0.51127,0.364798 0.2812,-0.171721 0.59565,-0.12425 0.69877,0.10549 0.10312,0.229742 1.02437,1.101247 2.0472,1.936688 1.02284,0.835438 1.69978,1.518979 1.50431,1.518979 -0.19546,0 -0.16973,0.296835 0.0572,0.659637 1.32669,2.121043 -0.70377,8.3621152 -4.0533,12.45881176 l -1.46776,1.7951562 h 1.44974 c 0.82954,0 2.30916,-0.7455921 3.45868,-1.7428593 z M 349.05614,-18.048822 c 1.269,-1.360291 2.30727,-2.926221 2.30727,-3.479842 0,-1.164602 1.02502,-2.332235 2.04739,-2.332235 0.38817,0 2.04831,-0.496323 3.6892,-1.102943 3.61923,-1.337989 6.99814,-4.511089 10.00098,-9.391816 1.2149,-1.974672 2.51033,-4.081706 2.87873,-4.6823 0.3684,-0.600593 1.04716,-1.400508 1.50835,-1.77759 0.46119,-0.377084 0.67705,-0.693506 0.47969,-0.703171 -0.66667,-0.03264 4.9836,-5.25751 6.67972,-6.176825 1.02106,-0.55342 2.64111,-0.852252 4.12125,-0.760195 2.85084,0.177305 7.78607,2.145089 9.17027,3.656396 1.37522,1.50149 2.83662,1.329216 3.27224,-0.385743 0.59217,-2.331268 -0.90019,-3.899374 -4.85402,-5.100372 -1.92288,-0.584083 -5.0684,-1.240194 -6.99002,-1.458013 -1.92162,-0.217823 -3.50505,-0.558058 -3.51873,-0.756078 -0.30343,-4.393073 -0.63979,-5.852912 -1.9329,-8.389009 -0.84639,-1.659978 -1.76207,-3.102208 -2.03483,-3.204955 -0.27277,-0.10275 0.12663,-0.917891 0.88756,-1.811418 3.73414,-4.384887 1.79222,-11.581831 -3.85379,-14.282437 -1.40825,-0.673598 -4.07656,-1.360562 -5.92958,-1.526585 -3.71972,-0.333275 -4.11435,-0.703401 -4.57069,-4.286976 l -0.28135,-2.209424 3.25629,-1.5498 c 4.27622,-2.035233 7.89049,-6.011548 9.35258,-10.289457 0.61413,-1.79687 1.03439,-3.34797 0.93391,-3.44688 -0.10048,-0.0989 1.99779,-0.10209 4.66282,-0.007 3.78754,0.13504 5.56646,-0.076 8.14739,-0.96662 4.65531,-1.60641 5.44417,-1.49985 6.76046,0.91325 0.61491,1.12731 2.17168,2.77862 3.45948,3.669598 1.94655,1.346735 3.05437,1.665163 6.56847,1.888 6.14055,0.389372 5.33047,-1.027642 -1.36317,-2.384518 -0.46119,-0.0935 -0.90142,-0.189 -0.97829,-0.21224 -0.0769,-0.0232 -0.30581,-0.02 -0.50876,0.008 -0.20296,0.0272 -0.59576,-0.35085 -0.87289,-0.84015 -0.27713,-0.48931 -0.74174,-0.74438 -1.03248,-0.56684 -0.29073,0.17754 -0.69715,-0.12794 -0.90315,-0.67883 -0.206,-0.55089 -0.52482,-1.12592 -0.7085,-1.27781 -0.18368,-0.1519 -0.95671,-1.48228 -1.71783,-2.9564 -0.76113,-1.47412 -1.66385,-2.79259 -2.00605,-2.92993 -0.34221,-0.13733 -2.2289,0.56518 -4.19264,1.56113 -1.96375,0.99597 -3.75911,1.84838 -3.98971,1.89426 -0.23059,0.0459 -0.48215,0.13162 -0.55902,0.19053 -0.0769,0.0589 -0.89443,0.23742 -1.81681,0.39669 -2.96636,0.51224 -5.64666,0.3525 -7.31616,-0.43601 -1.45703,-0.68816 -1.69824,-1.18692 -2.29537,-4.74627 -0.76176,-4.54071 -1.38913,-5.94884 -3.0392,-6.82141 -2.1056,-1.11344 -2.29964,0.16697 -0.72529,4.78599 1.5727,4.6142 1.86854,8.91962 0.84089,12.23746 -0.0235,0.0759 -0.0213,0.29673 0.005,0.49061 0.0263,0.19388 -0.20513,0.506932 -0.5142,0.695672 -0.30907,0.188739 -0.645,0.713649 -0.74652,1.166466 -0.20507,0.9147 -5.93258,6.636972 -6.52055,6.514586 -0.20473,-0.04264 -1.29371,0.11224 -2.41996,0.344124 -2.86608,0.590108 -3.85528,0.143481 -7.31575,-3.303125 l -3.03736,-3.025192 -2.18486,0.898975 c -1.20166,0.494446 -2.36967,1.181755 -2.59555,1.527351 -0.22589,0.345605 -0.41456,0.468122 -0.41926,0.272268 -0.005,-0.195854 -0.8816,-0.161543 -1.94863,0.07624 -1.40443,0.312978 -2.11786,0.220666 -2.58403,-0.334346 -0.35418,-0.42169 -0.89949,-0.766697 -1.21178,-0.766697 -0.31229,0 -1.67134,-1.005077 -3.0201,-2.233505 -2.69122,-2.451107 -3.83818,-2.403647 -3.3238,0.137555 0.50718,2.505665 2.37867,4.707554 4.62331,5.439525 1.85463,0.604791 3.24228,0.572493 10.75654,-0.250332 0.95181,-0.10423 1.89091,0.45154 3.22095,1.906195 1.27814,1.397892 2.68729,2.254817 4.41453,2.684561 l 2.5371,0.631231 -0.12486,3.049495 c -0.0687,1.677219 -0.33699,3.179031 -0.59625,3.337353 -0.25926,0.158326 -0.32666,0.519247 -0.14977,0.802052 0.17689,0.282802 0.0553,0.514188 -0.2704,0.514188 -0.32559,0 -0.592,0.352128 -0.592,0.782507 0,0.430373 -0.19909,0.865353 -0.44242,0.966621 -0.85752,0.356872 -3.46062,4.152635 -3.09535,4.513551 0.88398,0.873443 2.57373,0.213434 4.61349,-1.802024 1.20656,-1.192182 2.73269,-2.452604 3.39139,-2.800924 1.40575,-0.743367 4.97577,-0.603945 6.1004,0.238249 0.43158,0.323194 0.93469,0.52468 1.11803,0.44775 0.62995,-0.264325 3.47576,2.156599 4.50954,3.83626 1.02044,1.657985 1.01591,1.730734 -0.32824,5.259238 l -1.363,3.577995 1.34612,2.847057 c 1.78278,3.77061 2.23803,5.276502 2.19655,7.265912 -0.0418,2.002819 -0.28972,3.081161 -0.88413,3.844904 -1.15348,1.482049 -6.09565,8.674896 -9.71303,14.136348 -0.71509,1.079614 -1.30015,2.260274 -1.30015,2.623691 0,0.363417 -0.25156,0.660755 -0.55902,0.660755 -0.30746,0 -0.55902,0.287336 -0.55902,0.638518 0,0.900313 -6.08556,6.445049 -6.69448,6.099534 -0.16128,-0.09153 -0.79636,-0.01115 -1.41128,0.178559 -1.29917,0.400851 -2.27995,0.528069 -8.52503,1.105811 -3.07529,0.284502 -4.61189,0.655741 -4.61189,1.114223 0,0.914309 1.29367,1.358117 3.95884,1.358117 2.25927,0 2.83664,0.797542 1.51954,2.098953 -0.36896,0.364554 -0.48828,0.662825 -0.26516,0.662825 0.22312,0 0.0219,0.733336 -0.44722,1.629638 -0.9461,1.807758 -1.11366,3.341566 -0.36506,3.341566 0.26831,0 1.5261,-1.112969 2.79509,-2.473262 z m 47.67516,-2.757051 c 0.34297,-1.224574 0.69799,-4.891392 0.78892,-8.148492 0.18012,-6.45177 0.47157,-7.206825 4.12164,-10.677843 l 1.92339,-1.829039 1.10372,2.309992 c 0.60703,1.270499 1.15652,2.496416 1.22107,2.724261 0.0645,0.227848 0.17961,0.476409 0.25567,0.552357 0.41386,0.413245 0.34236,8.767609 -0.0772,9.023836 -0.27421,0.167454 -0.35384,0.535841 -0.17694,0.818648 0.17689,0.2828 0.0403,0.514188 -0.30339,0.514188 -0.34375,0 -0.4828,0.227334 -0.30901,0.505179 0.17379,0.277845 0.12575,0.588545 -0.10677,0.690444 -0.79539,0.348574 -3.03736,3.861842 -2.68597,4.209041 0.66058,0.652701 4.3752,-1.793888 5.6755,-3.738091 0.76293,-1.140719 1.45364,-3.2445 1.67311,-5.095952 l 0.37379,-3.153205 2.58108,-0.331984 c 6.28242,-0.808046 10.81599,-3.121184 9.21591,-4.702193 -0.43704,-0.431833 -1.63887,-0.270755 -4.28699,0.574571 -2.02383,0.646042 -4.48848,1.09564 -5.47699,0.999113 -1.54857,-0.151219 -2.05734,-0.634162 -3.6763,-3.489642 -3.46275,-6.107485 -3.36796,-5.549501 -1.38557,-8.155766 0.97851,-1.286447 2.43406,-3.581795 3.23455,-5.100774 2.28762,-4.340896 2.29848,-4.346901 4.60204,-2.544593 2.42878,1.900283 5.77767,2.980276 8.4602,2.728347 2.72132,-0.255577 2.58548,-1.662261 -0.21606,-2.237396 -2.60745,-0.535293 -6.20135,-2.370856 -8.30896,-4.243751 -1.49742,-1.330651 -1.53798,-1.524611 -1.56346,-7.476754 -0.0209,-4.866521 -0.29054,-6.897886 -1.32466,-9.977154 -0.71416,-2.126569 -1.20246,-4.11505 -1.0851,-4.418847 0.11736,-0.303796 1.4012,-1.173756 2.85298,-1.933246 2.76932,-1.448744 5.14652,-4.690769 5.16392,-7.042536 0.0151,-2.035729 -1.22571,-1.44573 -4.93788,2.348022 -5.20088,5.31517 -4.97224,5.285884 -9.13733,1.170436 -3.84762,-3.801761 -8.35352,-6.418327 -11.05282,-6.418327 -2.40957,0 -2.10412,0.878231 0.9597,2.759432 1.46043,0.896719 3.28423,2.130708 4.05288,2.742206 0.76865,0.611497 1.56611,1.11515 1.77216,1.119226 0.31554,0.0062 3.80465,3.44431 5.79,5.705305 0.96058,1.093947 3.68845,7.502041 3.99404,9.382499 0.40145,2.470251 0.12317,9.714327 -0.41796,10.880327 -0.0705,0.151899 -0.18662,0.524738 -0.25805,0.828535 -0.0714,0.303796 -0.19035,0.738776 -0.26424,0.966621 -0.0739,0.227848 -0.19725,0.662828 -0.27412,0.966624 -0.0769,0.303797 -0.20264,0.676636 -0.27951,0.828535 -0.0769,0.151896 -0.18053,0.462597 -0.23039,0.690445 -0.29765,1.360517 -3.35793,7.318713 -3.75907,7.318713 -0.26547,0 -0.48268,0.274931 -0.48268,0.61095 0,0.33602 -0.63129,1.101606 -1.40287,1.701295 -0.77158,0.599691 -1.28758,1.274672 -1.14668,1.49995 0.2359,0.377131 -1.84224,2.501532 -2.48161,2.536855 -0.60265,0.0333 -6.62792,4.799313 -6.87647,5.439323 -0.14527,0.374017 0.057,1.665181 0.44932,2.869252 1.85993,5.707454 1.91166,6.868029 0.57427,12.884527 -0.21373,0.961492 -0.0871,2.191682 0.29906,2.90457 0.65043,1.200831 0.69232,1.206261 1.44621,0.187551 0.427,-0.577007 1.05698,-2.051022 1.39995,-3.275591 z m -46.76543,-17.673658 c 6.02047,-3.618412 7.82621,-4.356155 10.48158,-4.282293 2.46108,0.06846 2.65534,-0.02453 2.65534,-1.270811 0,-1.485135 -1.69821,-2.851508 -3.91313,-3.148511 -2.44759,-0.328198 -4.75433,-2.077835 -5.39154,-4.089427 -0.78556,-2.479905 -0.55245,-9.987089 0.38381,-12.359945 0.0599,-0.151899 0.0872,-0.438786 0.0606,-0.637529 -0.0266,-0.198744 0.96276,-0.761092 2.19857,-1.249672 1.2358,-0.488576 2.09545,-1.130475 1.91033,-1.42643 -0.18693,-0.298848 -2.74744,-0.502227 -5.75863,-0.457402 -5.48905,0.08171 -7.93762,-0.299996 -7.93762,-1.237394 0,-0.283318 -0.26632,-0.51513 -0.5918,-0.51513 -0.32549,0 -1.58783,-0.790899 -2.80521,-1.757547 -1.69984,-1.349743 -2.36636,-1.606419 -2.87259,-1.10621 -1.79346,1.772092 4.83845,6.607111 9.74954,7.107937 l 3.0765,0.313738 -0.80359,2.554153 c -1.28116,4.072101 -0.71175,9.679903 1.362,13.413533 l 1.70709,3.073477 -3.85195,3.645936 c -2.11858,2.00526 -3.85196,3.903713 -3.85196,4.218776 0,0.968672 1.84588,0.621197 4.19264,-0.789249 z m 12.88282,-81.190009 c 0.84407,-0.834 1.40221,-2.05631 1.45027,-3.17604 0.12808,-2.98359 -0.16497,-6.11668 -0.70287,-7.51459 -0.49926,-1.29753 -0.47223,-1.3089 2.43576,-1.02537 1.61735,0.15769 3.63241,0.54732 4.47792,0.86584 0.84552,0.31852 1.53731,0.45528 1.53731,0.30389 0,-0.15138 0.62889,0.13192 1.39754,0.62956 0.76865,0.49764 1.39755,0.70442 1.39755,0.45952 0,-0.2449 0.36934,0.0372 0.82075,0.62691 0.4514,0.58971 0.82875,0.85685 0.83852,0.59366 0.01,-0.2632 1.02474,0.42035 2.25546,1.51898 2.71427,2.42295 3.61418,2.56206 3.09574,0.47854 -0.63521,-2.55277 -1.72244,-3.71538 -5.17463,-5.53346 -5.3415,-2.81307 -10.52604,-3.30905 -20.96761,-2.00589 -2.08685,0.26045 -3.4426,0.0187 -6.46375,-1.15246 -3.6893,-1.43019 -7.13425,-1.70269 -7.08157,-0.56015 0.0284,0.61619 5.91986,3.57488 6.47965,3.25408 0.19576,-0.11217 0.68854,0.19204 1.09507,0.67603 1.08668,1.29377 2.79961,1.79385 6.60982,1.92971 1.86949,0.0667 3.39906,0.31279 3.39906,0.54695 0,0.23417 0.29218,1.12548 0.64929,1.9807 0.35711,0.85521 0.58997,1.79676 0.51748,2.09231 -0.0725,0.29557 -0.24372,1.4141 -0.38051,2.48561 -0.13679,1.07152 -0.3866,2.3832 -0.55516,2.91483 -0.45872,1.44695 1.24447,1.21592 2.86891,-0.38916 z m 35.41489,-5.17187 c 1.2717,-2.47575 2.85244,-9.79798 2.85244,-13.21295 0,-3.17664 -1.59641,-5.78801 -4.34121,-7.1013 -2.92266,-1.39838 -9.02379,-1.68954 -11.86509,-0.56622 -1.23272,0.48736 -2.2413,0.66275 -2.2413,0.38977 0,-0.83507 -7.88409,-3.79499 -11.99036,-4.50154 -3.33767,-0.57431 -12.17725,-0.50003 -14.78826,0.12427 -0.57002,0.1363 -0.95774,-0.82167 -1.41925,-3.50658 -0.73277,-4.26318 -1.83702,-5.74034 -4.90046,-6.55541 -4.11025,-1.09359 -5.76974,0.61802 -2.69597,2.78065 3.40541,2.39597 4.81989,4.21316 4.86142,6.2455 0.0461,2.25214 -0.84731,3.30539 -5.4033,6.37045 -1.90478,1.28145 -3.14256,2.53467 -3.25323,3.2938 -0.27128,1.8609 1.5422,1.55667 4.21976,-0.7079 1.2572,-1.06329 2.56027,-1.93325 2.89571,-1.93325 0.33545,0 0.60991,-0.26322 0.60991,-0.58496 0,-0.32172 0.25156,-0.43133 0.55902,-0.24357 0.30746,0.18775 0.55902,0.0367 0.55902,-0.33564 0,-0.37236 0.15885,-0.52005 0.35301,-0.32821 0.19415,0.19184 0.88594,0.0581 1.5373,-0.29717 0.65135,-0.35528 1.79379,-0.73364 2.53875,-0.84079 0.74496,-0.10715 1.75119,-0.40444 2.23607,-0.66064 1.29177,-0.68256 12.34391,-0.22122 13.31976,0.55598 0.0769,0.0612 0.32842,0.15119 0.55902,0.19993 0.2306,0.0488 0.95219,0.38176 1.60355,0.74006 0.65136,0.35829 1.34314,0.49447 1.53731,0.30263 0.19415,-0.19184 0.353,-0.0442 0.353,0.32821 0,0.37236 0.25156,0.52339 0.55902,0.33564 0.30746,-0.18776 0.55902,-0.0782 0.55902,0.24357 0,0.32174 0.35638,0.58496 0.79194,0.58496 0.43557,0 0.8758,0.18642 0.97828,0.41427 0.5021,1.11627 3.68699,2.76882 4.42774,2.29744 1.46769,-0.93399 5.24688,-1.76199 7.90356,-1.73165 4.67935,0.0535 7.15808,2.92304 6.78737,7.85763 -0.1627,2.16571 -0.27001,2.68594 -1.5807,7.6633 -1.39363,5.29235 -0.31884,6.65489 1.87715,2.37972 z"
         style="opacity:1;fill:#ffe6d5;fill-opacity:1;stroke:none;stroke-width:0.52916658;stroke-linecap:round;stroke-linejoin:round;stroke-miterlimit:4;stroke-dasharray:none;stroke-dashoffset:0;stroke-opacity:1;paint-order:normal" />
      <path
         inkscape:connector-curvature="0"
         id="path963"
         d="m 432.70053,-107.53833 c -3.73359,-0.93756 -5.86969,-1.80651 -5.86969,-2.38775 0,-0.26255 0.63615,-0.76376 1.41366,-1.1138 0.77751,-0.35004 1.90729,-1.4631 2.51061,-2.47346 l 1.09695,-1.83704 3.48671,0.40622 c 3.9323,0.45813 4.09468,0.41462 4.5253,-1.21246 0.38435,-1.45221 -1.79105,-3.77787 -3.64427,-3.89598 -0.70576,-0.045 -1.66053,-0.13246 -2.12172,-0.19439 -0.46119,-0.0619 -1.22907,-0.14942 -1.70638,-0.1944 -0.50642,-0.0478 -1.3038,-1.27966 -1.91464,-2.95811 -1.32711,-3.64658 -5.01238,-7.26772 -8.72096,-8.56919 -1.51333,-0.53109 -2.75624,-1.21797 -2.76202,-1.5264 -0.11932,-6.36787 -0.58956,-9.33314 -2.13277,-13.44917 -1.99724,-5.32702 -5.06561,-10.95827 -7.40619,-13.59227 -3.5504,-3.99549 -11.38305,-5.96528 -23.02448,-5.79029 -5.10122,0.0767 -6.02062,0.25027 -8.51387,1.60756 -5.11853,2.78646 -5.09974,2.79195 -5.47209,-1.59653 -0.56251,-6.62955 -2.92998,-9.51001 -8.12133,-9.88105 l -3.23628,-0.2313 -0.92691,-2.57868 c -1.28161,-3.56545 -4.3498,-6.90738 -7.93103,-8.63864 -2.88645,-1.39538 -3.33247,-1.44912 -10.18768,-1.22756 -3.94299,0.12744 -7.67219,0.37255 -8.28711,0.54469 -1.70216,0.4765 -2.17475,0.55431 -2.93484,0.48315 -1.0185,-0.0953 -0.85534,-1.54491 0.21977,-1.95256 0.50519,-0.19155 0.75893,-0.50597 0.56386,-0.69871 -0.47393,-0.46829 0.75636,-1.89653 1.33126,-1.54546 0.248,0.15145 0.94749,-0.34841 1.55442,-1.11079 0.60692,-0.76239 1.25309,-1.38615 1.43591,-1.38615 0.18283,0 0.77552,-0.36447 1.3171,-0.80993 0.54156,-0.44546 1.86338,-1.3863 2.93736,-2.09076 2.06035,-1.35146 2.91613,-3.17523 1.48994,-3.17523 -0.4576,0 -2.7644,1.01162 -5.12623,2.24805 -4.35212,2.27836 -4.83175,2.3378 -5.13091,0.63583 -1.23309,-7.01497 -0.94922,-12.60703 0.70901,-13.96683 0.43715,-0.35848 0.79483,-0.95259 0.79483,-1.32024 0,-0.8514 4.44824,-4.41737 4.54201,-3.64115 0.0384,0.3181 0.13278,0.82694 0.20963,1.13073 0.0769,0.3038 0.17121,0.80091 0.20964,1.10472 0.0384,0.30379 0.344,0.55235 0.67904,0.55235 0.72171,0 2.69969,-2.23045 2.72635,-3.07433 0.0249,-0.79105 3.7409,-2.7804 6.1678,-3.30199 6.84175,-1.47044 15.73456,1.42786 22.10653,7.20486 5.47012,4.95935 6.37366,5.9981 5.80564,6.67437 -0.32467,0.38653 -2.83856,2.01793 -5.58646,3.62533 -2.74789,1.60739 -4.99615,3.1456 -4.99615,3.41822 0,0.27264 -1.03402,-0.42734 -2.29782,-1.55549 -1.26379,-1.12816 -3.1424,-2.39989 -4.17467,-2.82606 -2.14863,-0.88705 -6.62922,-1.05992 -6.11379,-0.23588 0.428,0.68427 6.10546,4.42268 6.77444,4.46073 1.21907,0.0693 4.14663,4.731 5.27626,8.40154 0.67671,2.19888 1.46186,4.24444 1.74478,4.5457 1.02128,1.08746 1.54488,-1.12236 1.20605,-5.09001 -0.24236,-2.83793 -0.13625,-4.23335 0.36751,-4.8331 0.90766,-1.08064 3.58178,-1.08939 4.48447,-0.0146 0.38275,0.4557 0.93464,0.82853 1.22641,0.82853 0.62511,0 2.15403,1.42673 2.19855,2.05161 0.017,0.2387 0.3968,1.2992 0.84396,2.35667 0.58998,1.39519 0.65582,2.22864 0.23998,3.03796 -0.31518,0.6134 -0.68256,1.73668 -0.81638,2.49617 -0.13383,0.75949 -0.79143,2.58795 -1.46134,4.06325 -1.6447,3.62208 -0.91617,4.24492 2.60459,2.22673 1.49104,-0.8547 2.79534,-1.75118 2.89847,-1.99219 0.10312,-0.24099 0.41758,-0.29769 0.69877,-0.12597 0.2812,0.17173 0.51127,0.0343 0.51127,-0.30533 0,-0.33965 0.23418,-0.47454 0.5204,-0.29977 0.28621,0.17479 0.65643,0.10029 0.8227,-0.16554 0.16628,-0.26584 1.83508,-0.44394 3.70843,-0.39578 1.87335,0.0482 3.54196,-0.12963 3.708,-0.39509 0.16604,-0.26547 -0.27142,-1.08567 -0.97215,-1.82267 -1.05704,-1.11175 -1.81199,-1.34 -4.43219,-1.34 h -3.15814 l -1.56104,-4.73988 c -1.24984,-3.79492 -2.06168,-5.24885 -4.07216,-7.29283 l -2.51112,-2.55295 1.3183,-0.99231 c 0.72507,-0.54577 1.60595,-1.22602 1.95751,-1.51166 0.35156,-0.28564 0.79179,-0.36858 0.97828,-0.18431 0.18649,0.18427 0.33908,0.0979 0.33908,-0.19184 0,-0.28978 0.56227,-0.56872 1.24951,-0.61987 0.68723,-0.0512 1.33761,-0.35415 1.44528,-0.67334 0.10769,-0.31919 0.39907,-0.4562 0.64754,-0.30447 0.24846,0.15172 1.42187,-0.0561 2.60759,-0.46188 2.22379,-0.76102 9.02488,-0.83537 12.49767,-0.13664 1.07611,0.21651 2.3339,0.46094 2.79509,0.54317 1.9528,0.34819 5.39902,2.40581 6.97198,4.16272 0.93104,1.03991 2.02522,2.22057 2.43151,2.62369 0.40628,0.40311 0.61257,0.73293 0.45842,0.73293 -0.15415,0 0.36546,1.55351 1.1547,3.45222 1.92863,4.63986 2.44252,6.95127 1.65268,7.4336 -1.12085,0.68448 -7.16053,1.0705 -8.06898,0.51574 -0.30233,-0.18462 -0.82132,-1.40164 -1.15334,-2.7045 -0.70641,-2.77198 -3.02554,-5.1822 -5.72143,-5.94616 -3.11464,-0.88262 -9.76404,-0.68791 -10.60262,0.31047 -1.11014,1.3217 -0.0807,1.85435 4.75469,2.46011 4.09686,0.51324 5.10146,0.89806 7.72297,2.9584 2.43436,1.91324 1.30827,4.92264 -3.23419,8.64316 -2.97421,2.43603 -5.11075,5.38968 -4.40388,6.08813 0.4464,0.44108 5.65339,-2.9235 9.80705,-6.33697 0.51207,-0.42082 1.07808,-0.61984 1.25779,-0.44226 0.17973,0.17757 0.32676,-0.009 0.32676,-0.41362 0,-0.40505 0.15773,-0.58062 0.35052,-0.39014 0.19277,0.19049 1.13611,0.0271 2.09632,-0.36304 1.47397,-0.59893 10.54912,-0.86177 11.52861,-0.3339 0.15373,0.0828 0.53107,0.1864 0.83853,0.23013 0.30745,0.0438 1.09194,0.36995 1.7433,0.72496 0.65136,0.35501 1.34315,0.48852 1.53731,0.29668 0.19414,-0.19185 0.353,-0.0442 0.353,0.32821 0,0.37235 0.25156,0.52339 0.55903,0.33563 0.30745,-0.18775 0.55901,-0.0781 0.55901,0.24359 0,0.32172 0.22196,0.58495 0.49325,0.58495 0.89043,0 5.13847,4.56756 6.64357,7.14327 0.81085,1.38763 1.69652,2.67503 1.96813,2.86089 0.27162,0.18586 0.44705,0.43443 0.38986,0.55236 -0.0572,0.11793 0.33196,1.69615 0.86478,3.50716 0.93583,3.18077 1.20265,7.63093 0.66365,11.06851 l -0.25983,1.65707 -6.43022,-0.19648 c -4.04961,-0.12374 -6.56283,0.0155 -6.78838,0.3761 -0.52518,0.83964 0.47319,1.27219 4.82932,2.09233 2.14593,0.40401 4.26712,1.03424 4.71377,1.4005 1.76463,1.44707 2.62505,4.09594 2.7543,8.47938 0.0717,2.43036 0.1505,4.58851 0.17521,4.79589 0.0247,0.20737 0.52498,0.5276 1.11172,0.7116 0.58675,0.184 1.89876,1.05227 2.91559,1.92948 1.01683,0.87722 2.01761,1.49183 2.22396,1.36582 0.4248,-0.25942 1.5269,0.89947 1.52085,1.59923 -0.003,0.25279 0.65005,1.18489 1.44939,2.07133 0.79936,0.88645 1.3168,1.61172 1.14988,1.61172 -0.16692,0 0.008,0.55926 0.38806,1.2428 1.42051,2.5528 1.78596,6.49133 0.95221,10.26231 -0.3809,1.72278 -0.64616,3.31874 -0.58946,3.54659 0.0567,0.22784 -0.13153,0.41427 -0.41827,0.41427 -0.47655,0 -1.13278,1.3407 -1.14902,2.3475 -0.004,0.22786 -0.5098,0.91139 -1.12472,1.51899 -1.27654,1.26131 -3.33648,1.33792 -7.54675,0.28066 z"
         style="opacity:1;fill:#ffffff;fill-opacity:1;stroke:none;stroke-width:0.52916658;stroke-linecap:round;stroke-linejoin:round;stroke-miterlimit:4;stroke-dasharray:none;stroke-dashoffset:0;stroke-opacity:1;paint-order:normal" />
      <path
         inkscape:connector-curvature="0"
         id="path965"
         d="m 342.97814,32.655197 c -7.82517,-2.700177 -10.14059,-5.697209 -10.16381,-13.155824 -0.0144,-4.615673 0.37383,-6.904786 1.17096,-6.904786 0.23932,0 2.52518,1.49136 5.07972,3.314135 4.6457,3.314915 6.1492,3.948461 6.1492,2.591172 0,-0.98708 -1.02158,-2.152479 -3.41497,-3.895737 -2.3693,-1.725716 -8.32441,-7.5216391 -8.32441,-8.1019058 0,-0.220367 -0.37124,-0.7051037 -0.825,-1.0771986 -0.45375,-0.3720949 -1.49597,-2.0779529 -2.31606,-3.7907955 -1.37374,-2.8692413 -1.43827,-3.3102416 -0.82022,-5.605103 0.36895,-1.3699636 0.90806,-2.5736961 1.19801,-2.6749587 0.28997,-0.1012709 0.5272,-0.5221545 0.5272,-0.9353062 0,-1.130827 2.26582,-2.4709302 4.17726,-2.4706152 0.93084,1.56e-4 3.076,0.5210361 4.76703,1.1575164 4.67304,1.7588674 7.9679,2.101752 12.58445,1.3096265 5.1958,-0.8915153 11.81416,-2.9468029 12.63459,-3.9235889 0.99808,-1.188283 -2.62969,-0.962507 -7.13183,0.443852 -7.72289,2.4124405 -17.35183,1.3123629 -23.20278,-2.65085 -2.4699,-1.67302 -2.76923,-2.648333 -2.34813,-7.651117 0.20093,-2.387104 0.0604,-4.830104 -0.36569,-6.361101 -1.66642,-5.986488 -2.1771,-16.358102 -1.0063,-20.437167 0.55183,-1.922545 3.35364,-6.703941 4.09257,-6.984114 0.44089,-0.167171 1.70169,0.245705 2.80177,0.917492 1.10009,0.671785 2.17229,1.051352 2.38266,0.843484 0.21038,-0.207873 -1.15001,-3.281086 -3.02308,-6.829365 -4.40914,-8.352494 -5.57867,-11.443361 -6.62114,-17.498533 -1.74828,-10.154909 -0.61338,-22.873219 2.3905,-26.789259 2.64954,-3.45411 4.72368,-4.84449 13.80013,-9.25083 3.97717,-1.93079 5.8697,-3.24993 5.8697,-4.09133 0,-0.97106 -2.17792,-0.35233 -9.22381,2.62042 -8.2075,3.46284 -9.66158,3.7603 -10.56005,2.16022 -0.34117,-0.60759 -0.76777,-1.22899 -0.948,-1.38089 -0.63703,-0.53687 -1.62887,-4.05434 -1.62887,-5.77658 0,-0.95989 0.34375,-2.20976 0.76388,-2.77748 0.7408,-1.00103 0.81062,-0.99588 2.31146,0.17062 1.59741,1.24155 3.33992,1.5657 3.86905,0.71974 0.16619,-0.26569 -1.06566,-2.50226 -2.73744,-4.97016 -1.89855,-2.80265 -3.60336,-6.19812 -4.54138,-9.04506 -1.33186,-4.04227 -1.50806,-5.46418 -1.5574,-12.56714 l -0.0556,-8.00916 3.02466,-8.61064 c 2.00934,-5.72024 2.88333,-8.96498 2.60366,-9.66623 -0.3792,-0.9508 -0.60665,-0.84527 -2.29131,1.06306 l -1.87032,2.11865 -0.88083,-1.68302 c -1.06802,-2.04071 -1.27456,-5.47854 -0.42354,-7.04973 1.07661,-1.9877 4.46786,-4.54459 6.94873,-5.2391 5.88756,-1.64821 14.71046,-0.19263 18.24279,3.00965 1.41277,1.28077 3.42649,5.36011 3.42649,6.94131 0,1.85791 1.43394,2.94856 4.50793,3.42871 4.15105,0.64836 5.74476,1.38884 6.80456,3.16156 1.13204,1.89354 0.95282,6.5623 -0.38539,10.04018 -2.11732,5.50271 -1.81559,6.06302 1.68994,3.13818 2.65958,-2.21903 6.56774,-4.85766 9.08074,-6.13096 2.54605,-1.29004 16.66299,-1.34431 20.95068,-0.0805 3.65069,1.07601 8.2579,3.91753 8.62973,5.3224 0.15502,0.58578 0.46295,1.06506 0.68428,1.06506 0.39167,0 2.43143,3.83026 4.11813,7.73298 0.45953,1.06329 1.25996,3.72186 1.77871,5.90795 0.76588,3.22749 0.82818,4.50462 0.33137,6.79355 -0.89609,4.1285 -0.85234,4.24203 2.04351,5.3032 1.46044,0.53516 3.28531,1.36354 4.05528,1.84084 0.76997,0.47729 1.88517,1.13298 2.47822,1.45708 0.59306,0.3241 1.34665,1.06977 1.67466,1.65706 0.32801,0.58729 0.72727,1.19208 0.88726,1.34398 0.15999,0.1519 0.56745,0.90035 0.90547,1.66322 0.49695,1.12161 0.33828,2.25797 -0.8291,5.93783 -0.79403,2.50293 -1.61914,4.55078 -1.83359,4.55078 -0.21444,0 -2.06244,-1.99755 -4.10665,-4.43899 -2.04422,-2.44144 -4.72655,-5.16175 -5.96073,-6.04513 -2.52009,-1.80378 -7.38816,-3.02243 -9.74188,-2.43872 -1.55205,0.38489 -1.55329,0.38896 -0.39829,1.31307 0.63722,0.50984 3.13316,1.62983 5.54654,2.48886 5.37676,1.91382 8.82017,5.19396 11.66304,11.10999 l 1.88481,3.92232 3.82391,0.35116 c 6.84126,0.62826 11.90266,3.12075 14.75027,7.263779 1.1943,1.737623 1.4574,2.686925 1.31733,4.753093 -0.18333,2.704093 -2.28262,8.23365 -3.12589,8.23365 -0.2696,0 -0.49018,0.352109 -0.49018,0.78246 0,0.430357 -0.64894,1.249552 -1.44209,1.820432 l -1.44209,1.037966 -3.23025,-3.231575 c -2.11405,-2.114914 -3.47064,-4.024352 -3.92593,-5.525844 -1.49566,-4.932611 -6.24856,-10.582871 -8.6102,-10.235871 -1.89582,0.27855 -1.61067,1.292508 1.16057,4.126942 3.54081,3.621554 4.65301,5.676516 5.03105,9.295719 0.50922,4.875108 -1.0787,9.462389 -4.94724,14.291842 -2.48059,3.096744 -2.62681,3.656249 -0.95555,3.656249 1.80568,0 5.20744,-4.006586 6.95605,-8.192809 2.12276,-5.081967 2.49343,-5.413011 4.13168,-3.689956 3.9719,4.177503 3.69809,12.259713 -0.57658,17.019259 l -2.05826,2.291728 -2.05275,-1.780865 c -1.12903,-0.979477 -2.56198,-1.780868 -3.18434,-1.780868 -1.23256,0 -1.14119,0.309784 0.89656,3.039598 3.50217,4.691574 4.59195,8.967944 4.50802,17.689666 -0.062,6.437364 -0.11483,6.706228 -1.99861,10.159794 -2.16881,3.976152 -6.38848,8.806542 -9.18481,10.514177 -1.72341,1.052431 -1.9913,1.073311 -3.86203,0.300985 -4.45545,-1.839422 -5.19147,-0.518835 -2.29504,4.117845 2.04197,3.268821 2.07962,3.427733 1.73976,7.343941 -0.40575,4.6753986 -0.48456,5.0384849 -1.6482,7.5931359 -0.92801,2.0373271 -2.87617,3.99907866 -3.42895,3.4528758 -0.17973,-0.1775721 -0.32676,-0.057663 -0.32676,0.26646336 0,0.8266038 -5.5346,2.08008214 -6.21518,1.4076165 -0.3401,-0.3360523 -0.32366,-1.0763872 0.0452,-2.03501166 0.31889,-0.8287374 0.57594,-3.0441096 0.57123,-4.9230579 -0.0156,-6.219654 -1.69849,-6.033489 -2.47228,0.2734815 -0.40976,3.3398372 -0.85046,3.9642143 -3.18635,4.5143922 -1.01698,0.2395303 -1.74959,0.99164636 -2.36081,2.42367246 -1.33135,3.11921534 -2.07046,3.80213574 -5.65662,5.22657784 -1.80641,0.7175109 -3.38647,1.6071859 -3.51124,1.9770469 -0.45857,1.359293 3.5578,0.629925 8.49935,-1.5434748 5.50936,-2.4231395 5.62806,-2.3966058 6.20659,1.3874258 0.80074,5.2375411 -0.56719,9.3235071 -4.51889,13.4978471 -4.04666,4.274643 -8.24016,5.796266 -13.39534,4.860533 -2.90259,-0.52686 -7.91457,-2.596676 -8.90424,-3.677211 -0.90228,-0.985138 -0.87096,-1.110726 0.61703,-2.47403 1.00963,-0.925039 2.20446,-1.4362 3.35707,-1.4362 1.981,0 2.98507,-0.960801 1.78737,-1.710366 -0.42371,-0.265181 -1.68682,-0.485951 -2.8069,-0.490601 -2.4694,-0.01028 -2.56411,-0.214558 -3.05045,-6.5802221 -0.43636,-5.7114267 -0.81758,-6.6975145 -2.16282,-5.5943748 -0.78003,0.6396488 -0.86488,1.7363088 -0.60909,7.8720259 0.26127,6.267067 0.16952,7.374827 -0.75898,9.163706 -1.40965,2.715917 -2.99643,4.078324 -7.1817,6.166211 -3.57614,1.78401 -5.53661,1.983777 -5.32407,0.542507 0.34768,-2.357569 1.52721,-6.054751 1.93169,-6.054751 0.25566,0 0.46483,-0.34625 0.46483,-0.769439 0,-0.423194 0.35202,-0.902908 0.78226,-1.066041 0.43024,-0.163132 1.07324,-1.167786 1.42889,-2.232567 0.86708,-2.595978 -0.0652,-5.978235 -2.08487,-7.563713 -1.33678,-1.0494021 -2.00413,-1.1602501 -5.43695,-0.9030691 -2.15222,0.161239 -4.35191,0.463704 -4.8882,0.6721341 -1.72879,0.671919 -0.43642,1.367856 2.54537,1.370678 2.19653,0.0022 3.29698,0.315148 4.52752,1.28805 l 1.62568,1.28531 -1.52424,5.478304 c -2.30543,8.286034 -4.08845,11.361512 -7.37303,12.717544 -1.82881,0.755017 -5.83349,0.965314 -7.49101,0.393368 z m 33.02584,-32.91602954 c 1.0374,-0.6907649 2.44356,-2.07317926 3.1248,-3.07202656 1.38364,-2.0287126 2.66338,-7.2478349 2.27254,-9.2680169 -0.21645,-1.118808 -0.0346,-1.315579 1.20486,-1.304112 0.80288,0.0074 2.56211,0.264607 3.90939,0.571517 2.83126,0.644953 3.11822,0.502557 2.6558,-1.317911 -0.39947,-1.572645 -2.40502,-2.475933 -5.94393,-2.677118 -1.60861,-0.09145 -3.46975,-0.725194 -5.16206,-1.757758 -1.45557,-0.888108 -3.97115,-1.911614 -5.59018,-2.274452 l -2.94371,-0.6597 0.19957,-3.195394 c 0.2776,-4.44477 -0.68505,-3.901804 -3.93886,2.221623 -3.61275,6.798927 -3.50668,7.595039 0.64981,4.877191 2.16979,-1.418785 2.22719,-1.425303 4.5999,-0.522323 1.32149,0.50292 3.37606,1.801354 4.5657,2.885418 1.74329,1.588565 2.19331,2.413387 2.31919,4.250816 0.17514,2.5561028 -1.97525,7.6397321 -4.52741,10.70303676 -1.38294,1.6599344 -1.41221,1.7951562 -0.38859,1.7951562 0.60885,0 1.95579,-0.5651739 2.99318,-1.2559465 z M 348.40562,-17.370716 c 0.95351,-0.987338 2.19777,-2.761261 2.76499,-3.942047 0.91284,-1.900244 1.42611,-2.265421 4.46763,-3.17862 4.58743,-1.377357 8.29281,-4.725333 12.03035,-10.869972 1.60381,-2.63672 3.11929,-4.876893 3.36775,-4.978155 0.24844,-0.101271 0.45172,-0.41339 0.45172,-0.693611 0,-0.72177 4.91372,-5.41949 6.95554,-6.649767 0.94008,-0.566443 2.35536,-1.030825 3.14507,-1.031957 2.44508,-0.0033 6.87451,1.548479 9.70332,3.399877 2.59379,1.697584 2.7343,1.72736 3.46857,0.735148 1.09905,-1.485126 0.95326,-2.360631 -0.63535,-3.815355 -1.53759,-1.408016 -6.08431,-2.794637 -10.96421,-3.343791 l -3.14104,-0.353468 -0.36202,-3.04357 c -0.3496,-2.939068 -2.50202,-8.040499 -3.70154,-8.773012 -0.36101,-0.220463 -0.0629,-0.968645 0.78054,-1.959101 3.39637,-3.988246 2.13364,-10.418847 -2.68289,-13.662963 -1.85821,-1.251572 -5.68319,-2.291868 -8.50699,-2.313675 -2.20199,-0.017 -2.78778,-0.753187 -3.1316,-3.935569 l -0.27455,-2.541175 3.28044,-1.53937 c 1.80424,-0.846652 4.18335,-2.526872 5.28691,-3.733826 2.16188,-2.364431 4.67878,-7.184805 4.68719,-8.976905 0.005,-1.0334 0.32097,-1.09357 4.89686,-0.93196 3.8332,0.13537 5.60616,-0.0738 8.19356,-0.96663 4.70324,-1.62295 5.3749,-1.48733 7.31947,1.47792 2.00559,3.05828 4.90693,4.669738 9.01346,5.006224 3.39873,0.27849 5.51017,-0.2195 4.12346,-0.972533 -0.46118,-0.250439 -2.28498,-0.748463 -4.05288,-1.106731 -1.76789,-0.35825 -3.21435,-0.85332 -3.21435,-1.10015 0,-0.24682 -0.45723,-0.56692 -1.01608,-0.71131 -0.55884,-0.14441 -1.87953,-1.91008 -2.93484,-3.92372 -1.05532,-2.01364 -2.23498,-3.78156 -2.62145,-3.92869 -0.38647,-0.14714 -2.59955,0.71958 -4.91797,1.92605 -3.78604,1.97019 -4.62683,2.19357 -8.25697,2.19357 -5.12447,0 -6.26354,-0.7172 -6.77655,-4.26668 -0.68885,-4.7662 -1.43384,-6.75937 -2.87524,-7.69256 -2.33422,-1.51121 -2.62749,-0.29717 -1.02842,4.25736 1.75584,5.00099 1.94671,10.41077 0.47959,13.592037 -0.53748,1.165453 -2.30179,3.405939 -3.9207,4.978869 -2.36689,2.29966 -3.43357,2.93249 -5.44539,3.230582 -3.4229,0.507181 -4.2748,0.136136 -7.83984,-3.414623 l -3.09404,-3.08164 -2.54008,1.402759 c -4.45121,2.458179 -6.85534,2.104759 -11.08144,-1.629018 -2.7368,-2.417986 -4.03683,-2.472646 -3.56669,-0.149977 0.5205,2.57149 2.37239,4.768074 4.64452,5.50901 1.93025,0.629449 7.19368,0.450274 10.02018,-0.341097 0.85551,-0.239526 1.88235,0.277266 3.78658,1.905729 1.43702,1.228902 3.64126,2.508016 4.89829,2.842472 l 2.28554,0.608093 -0.22465,3.48604 c -0.18298,2.839503 -0.53157,3.865739 -1.87948,5.533323 -2.38798,2.954295 -3.35381,4.599878 -2.93986,5.008898 0.64868,0.640959 2.69841,-0.347771 4.58461,-2.211501 2.43739,-2.408332 3.75447,-3.054999 6.22224,-3.054999 2.64211,0 5.20464,1.221559 7.52526,3.587288 2.16452,2.206605 2.29294,3.77391 0.61476,7.502816 l -1.13798,2.52859 1.84209,4.186957 c 2.80885,6.384327 2.53776,7.948305 -2.59121,14.949123 -2.27017,3.098678 -5.23885,7.589905 -6.59706,9.980501 -3.52653,6.207077 -7.05823,9.149768 -11.97277,9.975989 -0.30747,0.0517 -2.89141,0.300447 -5.74211,0.552804 -2.85069,0.25235 -5.3356,0.702684 -5.52204,1.000747 -0.53621,0.857277 0.99482,1.505473 3.57764,1.51467 2.73089,0.0097 2.83671,0.332312 1.24551,3.797176 -1.9396,4.223572 -1.31964,5.096321 1.52664,2.149106 z m 48.25925,-3.253118 c 0.30643,-1.124445 0.65883,-4.843259 0.7831,-8.264021 0.22244,-6.12288 0.25695,-6.260596 2.22011,-8.858821 3.07704,-4.072459 3.80241,-4.232619 5.30738,-1.171851 2.58681,5.260968 2.24473,11.853163 -0.82093,15.820295 -1.05626,1.36686 -1.92048,2.624384 -1.92048,2.794511 0,0.719212 1.59043,0.214116 3.33865,-1.060308 2.71144,-1.976593 3.7884,-3.895046 4.21226,-7.50355 l 0.37378,-3.182194 3.72416,-0.638495 c 4.54176,-0.778677 8.4758,-2.420367 8.4758,-3.536977 0,-1.381165 -0.77059,-1.435556 -4.42337,-0.312236 -4.02172,1.236786 -6.93917,1.38289 -7.7209,0.386667 -0.29798,-0.379745 -1.49821,-2.464117 -2.66718,-4.631931 l -2.12538,-3.941489 2.73847,-4.124674 c 1.50617,-2.268573 3.16323,-4.900335 3.68236,-5.84836 l 0.94387,-1.723674 2.83629,1.88593 c 2.89883,1.927522 6.79845,2.909396 8.9167,2.245105 1.82747,-0.573108 1.39215,-1.297386 -1.19322,-1.985255 -3.23085,-0.859609 -7.16788,-2.901204 -8.6153,-4.467564 -1.05424,-1.140885 -1.23175,-2.130768 -1.47079,-8.201927 -0.19848,-5.041054 -0.5763,-7.714075 -1.39999,-9.904355 -0.62048,-1.649952 -1.02405,-3.267957 -0.89682,-3.595569 0.12724,-0.327621 1.374,-1.19462 2.77057,-1.926668 2.66987,-1.399488 5.27058,-4.917923 5.27058,-7.130439 0,-1.994074 -1.26288,-1.364329 -4.66668,2.327052 -4.89981,5.313826 -5.25019,5.371716 -9.15564,1.512811 -3.85004,-3.804159 -8.66276,-6.678795 -11.19374,-6.68602 -2.46092,-0.0071 -2.28381,0.798998 0.55903,2.544108 5.52525,3.391751 7.00003,4.51494 9.82334,7.48146 7.45618,7.834378 8.50569,19.307632 2.78961,30.496169 -0.92744,1.81536 -1.97508,3.621786 -2.32808,4.01429 -1.79427,1.995038 -2.36621,2.736773 -2.87789,3.732279 -0.30746,0.598174 -2.44571,2.380051 -4.75166,3.959722 -2.30594,1.579666 -4.27995,3.304979 -4.38667,3.834017 -0.10672,0.529042 0.25077,2.484685 0.79445,4.345882 1.10817,3.793701 1.16722,6.461685 0.22856,10.327795 -0.48997,2.018099 -0.481,2.92145 0.0386,3.880676 0.65711,1.213189 0.70022,1.219152 1.45357,0.201161 0.427,-0.577007 1.02709,-1.969103 1.33352,-3.093552 z M 350.4231,-38.767142 c 4.74262,-2.97183 7.33024,-4.044536 9.8846,-4.097686 2.12946,-0.0443 2.54191,-0.234915 2.68714,-1.241812 0.20491,-1.420713 -1.74376,-2.953203 -3.75522,-2.953203 -2.04063,0 -4.88214,-2.172735 -5.51778,-4.219131 -0.71345,-2.296972 -0.71773,-8.433121 -0.008,-11.196717 0.4438,-1.727588 0.96601,-2.324148 2.71774,-3.104654 1.19262,-0.531382 2.03858,-1.173692 1.87991,-1.427349 -0.15865,-0.253664 -2.90917,-0.428115 -6.11227,-0.387675 -5.58017,0.07045 -5.92134,0.0063 -8.15547,-1.533038 -4.59859,-3.168498 -5.23611,-3.506648 -5.71642,-3.032051 -0.70745,0.699018 0.46606,2.545609 2.67635,4.211383 2.11919,1.597131 6.27044,3.013846 8.83113,3.013846 1.34922,0 1.5755,0.175256 1.24807,0.966621 -2.04843,4.95086 -1.80907,10.228537 0.67639,14.913603 l 1.74833,3.295571 -3.86729,3.791917 c -2.12701,2.085552 -3.86729,3.985003 -3.86729,4.220999 0,0.915993 2.13422,0.355745 4.64988,-1.220624 z m 12.48331,-80.959428 c 1.33942,-1.32345 1.41439,-1.68157 1.18522,-5.66165 -0.13454,-2.33685 -0.43899,-4.68381 -0.67655,-5.21545 -0.36746,-0.82237 -0.12623,-0.96662 1.61643,-0.96662 2.3729,0 7.05077,1.03536 7.82614,1.73217 0.29208,0.26249 0.98387,0.47726 1.5373,0.47726 0.55343,0 1.00623,0.24855 1.00623,0.55235 0,0.3038 0.28396,0.55235 0.63103,0.55235 0.34706,0 1.63162,0.89322 2.85459,1.98493 2.52292,2.25216 3.57773,1.94828 2.6237,-0.75585 -0.72341,-2.05043 -4.37103,-4.61976 -8.46695,-5.96399 -3.10715,-1.01974 -11.39523,-1.29968 -16.92848,-0.57178 -2.83655,0.37313 -3.78002,0.25878 -6.11425,-0.74112 -3.35478,-1.43704 -7.28687,-2.05104 -7.80724,-1.21909 -0.36408,0.58207 2.459,2.27805 5.1746,3.10866 0.72349,0.22129 2.20505,0.99887 3.29236,1.72794 1.56166,1.04714 2.706,1.3256 5.44773,1.3256 h 3.47082 l 0.8263,2.0785 c 0.67874,1.70731 0.71171,2.64558 0.1846,5.25393 -0.85221,4.21705 -0.23879,4.82662 2.31642,2.30186 z m 35.12785,-4.64941 c 1.50268,-2.87123 3.21187,-11.11796 2.95159,-14.2411 -0.28089,-3.37021 -1.69583,-5.23372 -5.18051,-6.82284 -2.60339,-1.18722 -7.9373,-1.31929 -10.87937,-0.26937 -1.73097,0.61771 -2.12392,0.56393 -3.72531,-0.50985 -3.59087,-2.40779 -9.46221,-3.80103 -16.13659,-3.82915 -3.38465,-0.0142 -7.01931,0.0984 -8.07701,0.25026 l -1.9231,0.27618 -0.71712,-3.83621 c -0.81781,-4.37491 -1.84153,-5.68744 -4.99536,-6.40468 -4.61819,-1.05028 -5.47698,0.71554 -1.62242,3.33595 2.66845,1.81405 4.19337,4.07662 4.19337,6.22181 0,1.36001 -1.51161,2.96251 -5.31068,5.63002 -2.57689,1.80936 -3.63361,2.97157 -3.63361,3.99637 0,1.28193 1.78029,0.77245 4.22914,-1.21028 1.31325,-1.06329 2.65983,-1.93325 2.99242,-1.93325 0.33258,0 0.60469,-0.24382 0.60469,-0.54183 0,-0.29801 0.69178,-0.70512 1.5373,-0.9047 0.84551,-0.19958 1.78886,-0.53543 2.09632,-0.74635 1.54861,-1.06234 7.24069,-1.80991 11.57029,-1.51957 5.38833,0.36133 9.51175,1.78893 13.47952,4.66684 l 2.73646,1.9848 2.59789,-0.91013 c 3.57569,-1.25269 8.58151,-1.33956 10.37257,-0.18001 2.93467,1.89996 3.65295,5.99027 2.037,11.59987 -1.6681,5.79063 -1.87861,7.5406 -0.90706,7.5406 0.46722,0 1.23654,-0.73951 1.70958,-1.64338 z"
         style="opacity:1;fill:#ffffff;fill-opacity:1;stroke:none;stroke-width:0.52916658;stroke-linecap:round;stroke-linejoin:round;stroke-miterlimit:4;stroke-dasharray:none;stroke-dashoffset:0;stroke-opacity:1;paint-order:normal" />
    </g>
  </g>
</svg>
